<svg xmlns="http://www.w3.org/2000/svg" xmlns:xlink="http://www.w3.org/1999/xlink" width="40" zoomAndPan="magnify" viewBox="0 0 30 30.000001" height="40" preserveAspectRatio="xMidYMid meet" version="1.0"><defs><clipPath id="e59ad8df79"><path d="M 1.574219 0 L 28 0 L 28 22 L 1.574219 22 Z M 1.574219 0 " clip-rule="nonzero"/></clipPath><clipPath id="40b1361d70"><path d="M 11 20 L 28.425781 20 L 28.425781 29 L 11 29 Z M 11 20 " clip-rule="nonzero"/></clipPath></defs><g clip-path="url(#e59ad8df79)"><path fill="#ffffff" d="M 1.570312 19.65625 C 1.570312 19.855469 1.640625 20.027344 1.78125 20.167969 C 1.921875 20.308594 2.09375 20.382812 2.296875 20.382812 L 7.835938 20.382812 C 8.039062 20.382812 8.210938 20.308594 8.351562 20.167969 C 8.492188 20.027344 8.5625 19.855469 8.5625 19.65625 L 8.5625 18.058594 C 9.28125 18.417969 10.027344 18.703125 10.804688 18.914062 C 11.074219 18.957031 11.347656 18.980469 11.621094 18.980469 C 12.199219 18.976562 12.761719 18.886719 13.3125 18.714844 L 13.710938 18.714844 L 13.710938 19.570312 C 13.707031 19.921875 13.800781 20.25 13.992188 20.546875 C 14.183594 20.84375 14.441406 21.0625 14.761719 21.210938 C 15.082031 21.355469 15.417969 21.398438 15.765625 21.347656 C 16.117188 21.292969 16.421875 21.148438 16.6875 20.914062 C 16.949219 21.152344 17.257812 21.300781 17.609375 21.351562 C 17.960938 21.40625 18.300781 21.359375 18.625 21.214844 C 18.945312 21.066406 19.203125 20.84375 19.394531 20.542969 C 19.582031 20.242188 19.675781 19.910156 19.667969 19.554688 L 19.667969 18.699219 L 21.394531 18.699219 C 21.632812 18.699219 21.863281 18.667969 22.09375 18.609375 L 22.78125 19.535156 C 22.824219 19.589844 22.871094 19.640625 22.929688 19.679688 L 22.957031 19.703125 C 23.003906 19.730469 23.054688 19.757812 23.105469 19.777344 L 23.128906 19.777344 L 26.574219 20.988281 C 26.648438 21.015625 26.730469 21.03125 26.808594 21.027344 C 26.960938 21.027344 27.101562 20.988281 27.222656 20.902344 C 27.425781 20.761719 27.53125 20.566406 27.535156 20.320312 C 27.570312 19.042969 27.597656 17.777344 27.628906 16.496094 C 27.628906 16.425781 27.617188 16.355469 27.59375 16.289062 L 27.59375 16.253906 C 27.574219 16.183594 27.539062 16.121094 27.496094 16.0625 L 25.921875 13.941406 C 26.296875 13.613281 26.574219 13.214844 26.75 12.75 C 27.21875 11.503906 26.789062 10.023438 25.660156 8.972656 L 19.480469 1.703125 C 19.378906 1.582031 19.246094 1.5 19.089844 1.464844 C 18.9375 1.429688 18.785156 1.441406 18.636719 1.507812 L 17.183594 2.132812 L 15.964844 0.484375 C 15.84375 0.316406 15.675781 0.222656 15.46875 0.199219 C 14.613281 0.0859375 13.808594 0.238281 13.054688 0.652344 C 12.550781 0.953125 12.128906 1.339844 11.789062 1.820312 C 11.453125 2.300781 11.226562 2.828125 11.117188 3.402344 C 11.074219 3.613281 11.117188 3.800781 11.242188 3.972656 L 11.917969 4.886719 L 8.5625 6.394531 L 8.5625 4.851562 C 8.5625 4.652344 8.492188 4.480469 8.351562 4.339844 C 8.210938 4.199219 8.039062 4.125 7.835938 4.125 L 2.296875 4.125 C 2.09375 4.125 1.921875 4.199219 1.78125 4.339844 C 1.640625 4.480469 1.570312 4.652344 1.570312 4.851562 C 1.570312 5.054688 1.640625 5.226562 1.78125 5.367188 C 1.921875 5.507812 2.09375 5.582031 2.296875 5.582031 L 7.109375 5.582031 L 7.109375 18.929688 L 2.296875 18.929688 C 2.09375 18.929688 1.921875 19 1.78125 19.140625 C 1.640625 19.28125 1.570312 19.453125 1.570312 19.65625 Z M 15.847656 19.554688 C 15.847656 19.652344 15.8125 19.730469 15.746094 19.796875 C 15.679688 19.863281 15.597656 19.898438 15.503906 19.898438 C 15.410156 19.898438 15.332031 19.863281 15.261719 19.796875 C 15.195312 19.730469 15.164062 19.652344 15.164062 19.554688 L 15.164062 18.699219 L 15.847656 18.699219 Z M 15.847656 18.058594 Z M 18.214844 19.554688 C 18.214844 19.652344 18.183594 19.730469 18.117188 19.796875 C 18.050781 19.863281 17.96875 19.898438 17.875 19.898438 C 17.78125 19.898438 17.699219 19.863281 17.632812 19.796875 C 17.566406 19.730469 17.53125 19.652344 17.53125 19.554688 L 17.53125 18.699219 L 18.214844 18.699219 Z M 18.214844 18.058594 Z M 18.15625 13.296875 L 13.960938 13.296875 C 14.039062 12.710938 14.265625 12.191406 14.632812 11.734375 C 15.054688 11.222656 15.582031 10.875 16.214844 10.6875 Z M 14.082031 5.367188 L 16.472656 3.597656 C 19.621094 7.839844 22.769531 12.082031 25.921875 16.316406 L 23.515625 18.09375 L 23.339844 17.859375 L 23.410156 17.78125 C 23.4375 17.746094 23.46875 17.71875 23.492188 17.683594 L 23.574219 17.574219 L 23.648438 17.46875 L 23.714844 17.359375 C 23.734375 17.320312 23.761719 17.285156 23.78125 17.25 C 23.796875 17.210938 23.820312 17.164062 23.835938 17.125 C 23.855469 17.089844 23.875 17.050781 23.886719 17.011719 C 23.886719 16.96875 23.921875 16.925781 23.9375 16.882812 C 23.953125 16.84375 23.964844 16.808594 23.976562 16.769531 C 23.976562 16.722656 24 16.675781 24.011719 16.625 C 24.023438 16.574219 24.011719 16.554688 24.039062 16.519531 C 24.0625 16.480469 24.039062 16.40625 24.0625 16.347656 C 24.089844 16.289062 24.0625 16.289062 24.0625 16.261719 C 24.0625 16.171875 24.0625 16.085938 24.0625 15.996094 C 24.0625 15.636719 23.992188 15.292969 23.855469 14.960938 C 23.71875 14.632812 23.523438 14.339844 23.269531 14.085938 C 23.015625 13.832031 22.722656 13.640625 22.394531 13.5 C 22.0625 13.363281 21.71875 13.296875 21.359375 13.296875 L 19.957031 13.296875 Z M 24.90625 18.875 L 26.15625 17.949219 L 26.125 19.292969 Z M 18.726562 3.035156 L 24.585938 9.941406 L 24.648438 10.007812 C 25.351562 10.648438 25.652344 11.546875 25.375 12.242188 C 25.296875 12.4375 25.1875 12.609375 25.035156 12.761719 L 18.074219 3.320312 Z M 13.769531 1.917969 C 14.152344 1.707031 14.5625 1.605469 15 1.613281 C 15.203125 1.882812 15.402344 2.152344 15.605469 2.425781 L 13.214844 4.195312 L 12.621094 3.390625 C 12.808594 2.746094 13.191406 2.257812 13.769531 1.917969 Z M 8.605469 7.972656 L 12.765625 6.105469 L 12.800781 6.066406 L 15.308594 9.46875 C 14.589844 9.765625 13.984375 10.214844 13.492188 10.8125 C 12.742188 11.769531 12.40625 12.851562 12.472656 14.0625 C 12.484375 14.253906 12.5625 14.414062 12.703125 14.546875 C 12.84375 14.679688 13.007812 14.746094 13.203125 14.746094 L 21.386719 14.746094 C 21.636719 14.746094 21.867188 14.8125 22.078125 14.953125 C 22.289062 15.09375 22.441406 15.28125 22.539062 15.515625 C 22.636719 15.746094 22.660156 15.988281 22.609375 16.234375 C 22.5625 16.484375 22.445312 16.695312 22.269531 16.875 C 22.179688 16.960938 22.082031 17.035156 21.972656 17.09375 C 21.789062 17.195312 21.59375 17.242188 21.386719 17.242188 L 13.203125 17.242188 C 13.125 17.242188 13.050781 17.253906 12.976562 17.277344 C 12.351562 17.496094 11.714844 17.558594 11.0625 17.464844 C 10.214844 17.199219 9.398438 16.867188 8.613281 16.46875 L 8.5625 16.449219 L 8.5625 7.980469 Z M 8.605469 7.972656 " fill-opacity="1" fill-rule="nonzero"/></g><g clip-path="url(#40b1361d70)"><path fill="#ffffff" d="M 26.9375 21.523438 C 26.804688 22.558594 26.507812 23.214844 26.078125 23.425781 C 25.800781 23.566406 25.492188 23.488281 25.011719 23.359375 C 24.445312 23.203125 23.742188 22.992188 23.011719 23.390625 C 22.011719 23.921875 21.898438 25.007812 21.804688 25.882812 C 21.75 26.382812 21.691406 26.949219 21.476562 27.070312 C 21.144531 27.269531 20.175781 26.652344 19.464844 26.207031 C 18.152344 25.375 16.667969 24.4375 15.203125 25.089844 C 14.644531 25.382812 14.171875 25.78125 13.792969 26.285156 C 13.304688 26.859375 12.96875 27.214844 12.417969 27.242188 C 12.261719 27.25 12.109375 27.234375 11.960938 27.195312 C 11.765625 27.144531 11.582031 27.171875 11.410156 27.273438 C 11.238281 27.375 11.125 27.523438 11.074219 27.71875 C 11.023438 27.914062 11.050781 28.097656 11.152344 28.269531 C 11.253906 28.441406 11.402344 28.554688 11.597656 28.605469 C 11.835938 28.664062 12.078125 28.695312 12.324219 28.695312 L 12.476562 28.695312 C 13.679688 28.632812 14.347656 27.859375 14.882812 27.242188 C 15.132812 26.902344 15.4375 26.625 15.804688 26.417969 C 16.558594 26.078125 17.644531 26.78125 18.710938 27.433594 C 19.890625 28.191406 21.125 28.960938 22.214844 28.324219 C 23.054688 27.832031 23.160156 26.835938 23.25 26.039062 C 23.324219 25.3125 23.398438 24.832031 23.691406 24.675781 C 23.902344 24.566406 24.167969 24.632812 24.621094 24.757812 C 25.207031 24.921875 25.933594 25.121094 26.722656 24.730469 C 27.621094 24.289062 28.175781 23.277344 28.378906 21.707031 C 28.40625 21.507812 28.355469 21.328125 28.230469 21.167969 C 28.109375 21.007812 27.945312 20.914062 27.746094 20.890625 C 27.546875 20.863281 27.367188 20.914062 27.207031 21.035156 C 27.046875 21.160156 26.953125 21.320312 26.925781 21.523438 Z M 26.9375 21.523438 " fill-opacity="1" fill-rule="nonzero"/></g><path fill="#ffffff" d="M 6.800781 6.832031 C 6.804688 6.6875 6.777344 6.550781 6.722656 6.421875 C 6.671875 6.289062 6.59375 6.171875 6.496094 6.074219 C 6.398438 5.972656 6.28125 5.894531 6.152344 5.839844 C 6.019531 5.785156 5.886719 5.753906 5.742188 5.753906 C 5.601562 5.753906 5.464844 5.78125 5.335938 5.832031 C 5.203125 5.886719 5.085938 5.964844 4.988281 6.0625 C 4.886719 6.164062 4.808594 6.277344 4.753906 6.410156 C 4.699219 6.539062 4.671875 6.675781 4.671875 6.816406 C 4.671875 6.960938 4.699219 7.097656 4.753906 7.226562 C 4.808594 7.359375 4.886719 7.472656 4.984375 7.574219 C 5.085938 7.671875 5.199219 7.75 5.332031 7.804688 C 5.460938 7.859375 5.597656 7.882812 5.742188 7.882812 C 5.878906 7.882812 6.015625 7.855469 6.144531 7.804688 C 6.273438 7.75 6.386719 7.671875 6.488281 7.574219 C 6.585938 7.476562 6.664062 7.363281 6.71875 7.234375 C 6.773438 7.105469 6.800781 6.96875 6.800781 6.832031 Z M 5.347656 6.832031 C 5.347656 6.722656 5.386719 6.628906 5.460938 6.550781 C 5.539062 6.472656 5.628906 6.433594 5.738281 6.433594 C 5.847656 6.433594 5.941406 6.472656 6.015625 6.546875 C 6.09375 6.625 6.132812 6.71875 6.132812 6.824219 C 6.132812 6.933594 6.09375 7.027344 6.019531 7.105469 C 5.941406 7.179688 5.847656 7.21875 5.742188 7.21875 C 5.632812 7.21875 5.539062 7.183594 5.464844 7.105469 C 5.386719 7.03125 5.347656 6.9375 5.347656 6.832031 Z M 5.347656 6.832031 " fill-opacity="1" fill-rule="nonzero"/></svg>