<svg xmlns="http://www.w3.org/2000/svg" xmlns:xlink="http://www.w3.org/1999/xlink" width="40" zoomAndPan="magnify" viewBox="0 0 30 30.000001" height="40" preserveAspectRatio="xMidYMid meet" version="1.0"><defs><clipPath id="f51e2d7d9d"><path d="M 4.390625 6.5625 L 26.167969 6.5625 L 26.167969 12 L 4.390625 12 Z M 4.390625 6.5625 " clip-rule="nonzero"/></clipPath><clipPath id="d847616dc5"><path d="M 4.390625 11 L 26.167969 11 L 26.167969 17 L 4.390625 17 Z M 4.390625 11 " clip-rule="nonzero"/></clipPath><clipPath id="699e54bb1d"><path d="M 4.390625 16 L 26.167969 16 L 26.167969 21.078125 L 4.390625 21.078125 Z M 4.390625 16 " clip-rule="nonzero"/></clipPath></defs><g clip-path="url(#f51e2d7d9d)"><path fill="#ff9932" d="M 4.414062 6.5625 L 26.144531 6.5625 L 26.144531 11.402344 L 4.414062 11.402344 Z M 4.414062 6.5625 " fill-opacity="1" fill-rule="nonzero"/></g><g clip-path="url(#d847616dc5)"><path fill="#ffffff" d="M 4.414062 11.402344 L 26.144531 11.402344 L 26.144531 16.242188 L 4.414062 16.242188 Z M 4.414062 11.402344 " fill-opacity="1" fill-rule="nonzero"/></g><g clip-path="url(#699e54bb1d)"><path fill="#128807" d="M 4.414062 16.242188 L 26.144531 16.242188 L 26.144531 21.078125 L 4.414062 21.078125 Z M 4.414062 16.242188 " fill-opacity="1" fill-rule="nonzero"/></g><path fill="#000080" d="M 17.523438 13.820312 C 17.523438 14.121094 17.46875 14.40625 17.355469 14.683594 C 17.238281 14.957031 17.078125 15.203125 16.867188 15.414062 C 16.65625 15.625 16.414062 15.785156 16.136719 15.902344 C 15.863281 16.015625 15.578125 16.070312 15.277344 16.070312 C 14.980469 16.070312 14.695312 16.015625 14.417969 15.902344 C 14.144531 15.785156 13.902344 15.625 13.691406 15.414062 C 13.480469 15.203125 13.316406 14.957031 13.203125 14.683594 C 13.089844 14.40625 13.035156 14.121094 13.035156 13.820312 C 13.035156 13.523438 13.089844 13.238281 13.203125 12.960938 C 13.316406 12.683594 13.480469 12.441406 13.691406 12.230469 C 13.902344 12.019531 14.144531 11.855469 14.417969 11.742188 C 14.695312 11.628906 14.980469 11.570312 15.277344 11.570312 C 15.578125 11.570312 15.863281 11.628906 16.136719 11.742188 C 16.414062 11.855469 16.65625 12.019531 16.867188 12.230469 C 17.078125 12.441406 17.238281 12.683594 17.355469 12.960938 C 17.46875 13.238281 17.523438 13.523438 17.523438 13.820312 Z M 17.523438 13.820312 " fill-opacity="1" fill-rule="nonzero"/><path fill="#ffffff" d="M 17.257812 13.820312 C 17.257812 14.085938 17.210938 14.339844 17.109375 14.582031 C 17.007812 14.824219 16.863281 15.039062 16.679688 15.226562 C 16.492188 15.410156 16.28125 15.554688 16.035156 15.65625 C 15.792969 15.753906 15.542969 15.804688 15.277344 15.804688 C 15.015625 15.804688 14.765625 15.753906 14.519531 15.65625 C 14.277344 15.554688 14.066406 15.410156 13.878906 15.226562 C 13.691406 15.039062 13.550781 14.824219 13.449219 14.582031 C 13.347656 14.339844 13.300781 14.085938 13.300781 13.820312 C 13.300781 13.558594 13.347656 13.304688 13.449219 13.0625 C 13.550781 12.820312 13.691406 12.605469 13.878906 12.417969 C 14.066406 12.234375 14.277344 12.089844 14.519531 11.988281 C 14.765625 11.886719 15.015625 11.839844 15.277344 11.839844 C 15.542969 11.839844 15.792969 11.886719 16.035156 11.988281 C 16.28125 12.089844 16.492188 12.234375 16.679688 12.417969 C 16.863281 12.605469 17.007812 12.820312 17.109375 13.0625 C 17.210938 13.304688 17.257812 13.558594 17.257812 13.820312 Z M 17.257812 13.820312 " fill-opacity="1" fill-rule="nonzero"/><path fill="#000080" d="M 17.363281 14.097656 C 17.351562 14.175781 17.304688 14.210938 17.226562 14.199219 C 17.148438 14.191406 17.113281 14.144531 17.121094 14.066406 C 17.132812 13.984375 17.179688 13.949219 17.257812 13.960938 C 17.339844 13.972656 17.371094 14.015625 17.363281 14.097656 Z M 17.363281 14.097656 " fill-opacity="1" fill-rule="nonzero"/><path fill="#000080" d="M 15.277344 15.804688 L 15.351562 14.644531 C 15.320312 14.546875 15.296875 14.273438 15.277344 13.820312 C 15.261719 14.273438 15.238281 14.546875 15.207031 14.644531 Z M 15.277344 15.804688 " fill-opacity="1" fill-rule="nonzero"/><path fill="#000080" d="M 17.21875 14.628906 C 17.1875 14.703125 17.136719 14.722656 17.0625 14.691406 C 16.988281 14.660156 16.964844 14.609375 16.996094 14.535156 C 17.027344 14.460938 17.082031 14.4375 17.15625 14.46875 C 17.230469 14.5 17.25 14.554688 17.21875 14.628906 Z M 17.21875 14.628906 " fill-opacity="1" fill-rule="nonzero"/><path fill="#000080" d="M 14.765625 15.738281 L 15.136719 14.636719 C 15.128906 14.535156 15.179688 14.261719 15.277344 13.820312 C 15.148438 14.253906 15.054688 14.511719 14.996094 14.597656 Z M 14.765625 15.738281 " fill-opacity="1" fill-rule="nonzero"/><path fill="#000080" d="M 16.945312 15.101562 C 16.898438 15.167969 16.839844 15.175781 16.777344 15.125 C 16.710938 15.078125 16.707031 15.019531 16.753906 14.957031 C 16.804688 14.890625 16.859375 14.882812 16.921875 14.933594 C 16.988281 14.984375 16.996094 15.039062 16.945312 15.101562 Z M 16.945312 15.101562 " fill-opacity="1" fill-rule="nonzero"/><path fill="#000080" d="M 14.289062 15.539062 L 14.929688 14.570312 C 14.953125 14.46875 15.066406 14.222656 15.277344 13.820312 C 15.039062 14.203125 14.882812 14.429688 14.804688 14.5 Z M 14.289062 15.539062 " fill-opacity="1" fill-rule="nonzero"/><path fill="#000080" d="M 16.558594 15.492188 C 16.496094 15.539062 16.4375 15.535156 16.390625 15.46875 C 16.339844 15.40625 16.347656 15.347656 16.410156 15.300781 C 16.476562 15.25 16.53125 15.257812 16.582031 15.320312 C 16.628906 15.386719 16.621094 15.441406 16.558594 15.492188 Z M 16.558594 15.492188 " fill-opacity="1" fill-rule="nonzero"/><path fill="#000080" d="M 13.878906 15.226562 L 14.75 14.453125 C 14.796875 14.363281 14.972656 14.152344 15.277344 13.820312 C 14.949219 14.128906 14.738281 14.308594 14.648438 14.351562 Z M 13.878906 15.226562 " fill-opacity="1" fill-rule="nonzero"/><path fill="#000080" d="M 16.082031 15.765625 C 16.007812 15.796875 15.957031 15.777344 15.925781 15.699219 C 15.894531 15.625 15.917969 15.574219 15.992188 15.542969 C 16.066406 15.511719 16.117188 15.535156 16.148438 15.609375 C 16.179688 15.683594 16.15625 15.734375 16.082031 15.765625 Z M 16.082031 15.765625 " fill-opacity="1" fill-rule="nonzero"/><path fill="#000080" d="M 13.5625 14.8125 L 14.605469 14.296875 C 14.671875 14.21875 14.898438 14.0625 15.277344 13.820312 C 14.878906 14.035156 14.632812 14.148438 14.53125 14.171875 Z M 13.5625 14.8125 " fill-opacity="1" fill-rule="nonzero"/><path fill="#000080" d="M 15.554688 15.910156 C 15.472656 15.917969 15.429688 15.882812 15.417969 15.804688 C 15.40625 15.726562 15.441406 15.679688 15.523438 15.667969 C 15.601562 15.660156 15.648438 15.691406 15.65625 15.773438 C 15.667969 15.851562 15.632812 15.898438 15.554688 15.910156 Z M 15.554688 15.910156 " fill-opacity="1" fill-rule="nonzero"/><path fill="#000080" d="M 13.367188 14.335938 L 14.503906 14.105469 C 14.589844 14.046875 14.847656 13.953125 15.277344 13.820312 C 14.839844 13.921875 14.570312 13.972656 14.46875 13.964844 Z M 13.367188 14.335938 " fill-opacity="1" fill-rule="nonzero"/><path fill="#000080" d="M 15.003906 15.910156 C 14.925781 15.898438 14.890625 15.851562 14.902344 15.773438 C 14.910156 15.691406 14.957031 15.660156 15.035156 15.667969 C 15.117188 15.679688 15.152344 15.726562 15.140625 15.804688 C 15.128906 15.882812 15.085938 15.917969 15.003906 15.910156 Z M 15.003906 15.910156 " fill-opacity="1" fill-rule="nonzero"/><path fill="#000080" d="M 13.300781 13.820312 L 14.457031 13.894531 C 14.554688 13.863281 14.828125 13.839844 15.277344 13.820312 C 14.828125 13.804688 14.554688 13.78125 14.457031 13.75 Z M 13.300781 13.820312 " fill-opacity="1" fill-rule="nonzero"/><path fill="#000080" d="M 14.476562 15.765625 C 14.402344 15.734375 14.378906 15.683594 14.410156 15.609375 C 14.441406 15.535156 14.492188 15.511719 14.566406 15.542969 C 14.640625 15.574219 14.664062 15.625 14.632812 15.699219 C 14.601562 15.777344 14.550781 15.796875 14.476562 15.765625 Z M 14.476562 15.765625 " fill-opacity="1" fill-rule="nonzero"/><path fill="#000080" d="M 13.367188 13.308594 L 14.46875 13.679688 C 14.570312 13.671875 14.839844 13.71875 15.277344 13.820312 C 14.847656 13.691406 14.589844 13.59375 14.503906 13.539062 Z M 13.367188 13.308594 " fill-opacity="1" fill-rule="nonzero"/><path fill="#000080" d="M 14 15.492188 C 13.9375 15.441406 13.929688 15.386719 13.976562 15.320312 C 14.027344 15.257812 14.082031 15.25 14.148438 15.300781 C 14.210938 15.347656 14.21875 15.40625 14.167969 15.46875 C 14.121094 15.535156 14.0625 15.539062 14 15.492188 Z M 14 15.492188 " fill-opacity="1" fill-rule="nonzero"/><path fill="#000080" d="M 13.5625 12.828125 L 14.53125 13.472656 C 14.632812 13.492188 14.878906 13.609375 15.277344 13.820312 C 14.898438 13.582031 14.671875 13.425781 14.605469 13.347656 Z M 13.5625 12.828125 " fill-opacity="1" fill-rule="nonzero"/><path fill="#000080" d="M 13.613281 15.101562 C 13.5625 15.039062 13.570312 14.984375 13.632812 14.933594 C 13.699219 14.882812 13.753906 14.890625 13.804688 14.957031 C 13.851562 15.019531 13.84375 15.078125 13.78125 15.125 C 13.71875 15.175781 13.660156 15.167969 13.613281 15.101562 Z M 13.613281 15.101562 " fill-opacity="1" fill-rule="nonzero"/><path fill="#000080" d="M 13.878906 12.417969 L 14.648438 13.292969 C 14.738281 13.335938 14.949219 13.515625 15.277344 13.820312 C 14.972656 13.492188 14.796875 13.28125 14.75 13.1875 Z M 13.878906 12.417969 " fill-opacity="1" fill-rule="nonzero"/><path fill="#000080" d="M 13.339844 14.628906 C 13.308594 14.554688 13.328125 14.5 13.402344 14.46875 C 13.476562 14.4375 13.53125 14.460938 13.5625 14.535156 C 13.59375 14.609375 13.570312 14.660156 13.496094 14.691406 C 13.421875 14.722656 13.367188 14.703125 13.339844 14.628906 Z M 13.339844 14.628906 " fill-opacity="1" fill-rule="nonzero"/><path fill="#000080" d="M 14.289062 12.105469 L 14.804688 13.144531 C 14.882812 13.214844 15.039062 13.4375 15.277344 13.820312 C 15.066406 13.421875 14.953125 13.171875 14.929688 13.074219 Z M 14.289062 12.105469 " fill-opacity="1" fill-rule="nonzero"/><path fill="#000080" d="M 13.195312 14.097656 C 13.1875 14.015625 13.21875 13.972656 13.300781 13.960938 C 13.378906 13.949219 13.425781 13.984375 13.4375 14.066406 C 13.445312 14.144531 13.410156 14.191406 13.332031 14.199219 C 13.25 14.210938 13.207031 14.175781 13.195312 14.097656 Z M 13.195312 14.097656 " fill-opacity="1" fill-rule="nonzero"/><path fill="#000080" d="M 14.765625 11.90625 L 14.996094 13.046875 C 15.054688 13.132812 15.148438 13.390625 15.277344 13.820312 C 15.179688 13.382812 15.128906 13.109375 15.136719 13.007812 Z M 14.765625 11.90625 " fill-opacity="1" fill-rule="nonzero"/><path fill="#000080" d="M 13.195312 13.546875 C 13.207031 13.46875 13.25 13.433594 13.332031 13.441406 C 13.410156 13.453125 13.445312 13.5 13.4375 13.578125 C 13.425781 13.660156 13.378906 13.695312 13.300781 13.683594 C 13.21875 13.671875 13.1875 13.628906 13.195312 13.546875 Z M 13.195312 13.546875 " fill-opacity="1" fill-rule="nonzero"/><path fill="#000080" d="M 15.277344 11.839844 L 15.207031 13 C 15.238281 13.097656 15.261719 13.371094 15.277344 13.820312 C 15.296875 13.371094 15.320312 13.097656 15.351562 13 Z M 15.277344 11.839844 " fill-opacity="1" fill-rule="nonzero"/><path fill="#000080" d="M 13.339844 13.015625 C 13.367188 12.941406 13.421875 12.921875 13.496094 12.949219 C 13.570312 12.980469 13.59375 13.035156 13.5625 13.109375 C 13.53125 13.183594 13.476562 13.207031 13.402344 13.175781 C 13.328125 13.144531 13.308594 13.089844 13.339844 13.015625 Z M 13.339844 13.015625 " fill-opacity="1" fill-rule="nonzero"/><path fill="#000080" d="M 15.792969 11.90625 L 15.421875 13.007812 C 15.429688 13.109375 15.378906 13.382812 15.277344 13.820312 C 15.410156 13.390625 15.503906 13.132812 15.5625 13.046875 Z M 15.792969 11.90625 " fill-opacity="1" fill-rule="nonzero"/><path fill="#000080" d="M 13.613281 12.539062 C 13.660156 12.476562 13.71875 12.46875 13.78125 12.519531 C 13.84375 12.566406 13.851562 12.625 13.804688 12.6875 C 13.753906 12.75 13.699219 12.757812 13.632812 12.710938 C 13.570312 12.660156 13.5625 12.605469 13.613281 12.539062 Z M 13.613281 12.539062 " fill-opacity="1" fill-rule="nonzero"/><path fill="#000080" d="M 16.269531 12.105469 L 15.625 13.074219 C 15.605469 13.171875 15.492188 13.421875 15.277344 13.820312 C 15.519531 13.4375 15.675781 13.214844 15.753906 13.144531 Z M 16.269531 12.105469 " fill-opacity="1" fill-rule="nonzero"/><path fill="#000080" d="M 14 12.152344 C 14.0625 12.101562 14.121094 12.109375 14.167969 12.175781 C 14.21875 12.238281 14.210938 12.296875 14.148438 12.34375 C 14.082031 12.394531 14.027344 12.386719 13.976562 12.320312 C 13.929688 12.257812 13.9375 12.203125 14 12.152344 Z M 14 12.152344 " fill-opacity="1" fill-rule="nonzero"/><path fill="#000080" d="M 16.679688 12.417969 L 15.808594 13.1875 C 15.761719 13.28125 15.585938 13.492188 15.277344 13.820312 C 15.609375 13.515625 15.820312 13.335938 15.910156 13.292969 Z M 16.679688 12.417969 " fill-opacity="1" fill-rule="nonzero"/><path fill="#000080" d="M 14.476562 11.878906 C 14.550781 11.847656 14.601562 11.867188 14.632812 11.941406 C 14.664062 12.015625 14.640625 12.070312 14.566406 12.101562 C 14.492188 12.132812 14.441406 12.109375 14.410156 12.035156 C 14.378906 11.960938 14.402344 11.910156 14.476562 11.878906 Z M 14.476562 11.878906 " fill-opacity="1" fill-rule="nonzero"/><path fill="#000080" d="M 16.992188 12.828125 L 15.953125 13.347656 C 15.886719 13.425781 15.660156 13.582031 15.277344 13.820312 C 15.675781 13.609375 15.925781 13.492188 16.027344 13.472656 Z M 16.992188 12.828125 " fill-opacity="1" fill-rule="nonzero"/><path fill="#000080" d="M 15.003906 11.734375 C 15.085938 11.722656 15.128906 11.757812 15.140625 11.839844 C 15.152344 11.917969 15.117188 11.964844 15.035156 11.976562 C 14.957031 11.984375 14.910156 11.949219 14.902344 11.871094 C 14.890625 11.789062 14.925781 11.746094 15.003906 11.734375 Z M 15.003906 11.734375 " fill-opacity="1" fill-rule="nonzero"/><path fill="#000080" d="M 17.191406 13.308594 L 16.054688 13.539062 C 15.96875 13.59375 15.710938 13.691406 15.277344 13.820312 C 15.71875 13.71875 15.988281 13.671875 16.089844 13.679688 Z M 17.191406 13.308594 " fill-opacity="1" fill-rule="nonzero"/><path fill="#000080" d="M 15.554688 11.734375 C 15.632812 11.746094 15.667969 11.789062 15.65625 11.871094 C 15.648438 11.949219 15.601562 11.984375 15.523438 11.976562 C 15.441406 11.964844 15.40625 11.917969 15.417969 11.839844 C 15.429688 11.757812 15.472656 11.722656 15.554688 11.734375 Z M 15.554688 11.734375 " fill-opacity="1" fill-rule="nonzero"/><path fill="#000080" d="M 17.257812 13.820312 L 16.101562 13.75 C 16.003906 13.78125 15.730469 13.804688 15.277344 13.820312 C 15.730469 13.839844 16.003906 13.863281 16.101562 13.894531 Z M 17.257812 13.820312 " fill-opacity="1" fill-rule="nonzero"/><path fill="#000080" d="M 16.082031 11.878906 C 16.15625 11.910156 16.179688 11.960938 16.148438 12.035156 C 16.117188 12.109375 16.066406 12.132812 15.992188 12.101562 C 15.917969 12.070312 15.894531 12.015625 15.925781 11.941406 C 15.957031 11.867188 16.007812 11.847656 16.082031 11.878906 Z M 16.082031 11.878906 " fill-opacity="1" fill-rule="nonzero"/><path fill="#000080" d="M 17.191406 14.335938 L 16.089844 13.964844 C 15.988281 13.972656 15.71875 13.921875 15.277344 13.820312 C 15.710938 13.953125 15.96875 14.046875 16.054688 14.105469 Z M 17.191406 14.335938 " fill-opacity="1" fill-rule="nonzero"/><path fill="#000080" d="M 16.558594 12.152344 C 16.621094 12.203125 16.628906 12.257812 16.582031 12.320312 C 16.53125 12.386719 16.476562 12.394531 16.410156 12.34375 C 16.347656 12.296875 16.339844 12.238281 16.390625 12.175781 C 16.4375 12.109375 16.496094 12.101562 16.558594 12.152344 Z M 16.558594 12.152344 " fill-opacity="1" fill-rule="nonzero"/><path fill="#000080" d="M 16.992188 14.8125 L 16.027344 14.171875 C 15.925781 14.148438 15.675781 14.035156 15.277344 13.820312 C 15.660156 14.0625 15.886719 14.21875 15.953125 14.296875 Z M 16.992188 14.8125 " fill-opacity="1" fill-rule="nonzero"/><path fill="#000080" d="M 16.945312 12.539062 C 16.996094 12.605469 16.988281 12.660156 16.921875 12.710938 C 16.859375 12.757812 16.804688 12.75 16.753906 12.6875 C 16.707031 12.625 16.710938 12.566406 16.777344 12.519531 C 16.839844 12.46875 16.898438 12.476562 16.945312 12.539062 Z M 16.945312 12.539062 " fill-opacity="1" fill-rule="nonzero"/><path fill="#000080" d="M 16.679688 15.226562 L 15.910156 14.351562 C 15.820312 14.308594 15.609375 14.128906 15.277344 13.820312 C 15.585938 14.152344 15.761719 14.363281 15.808594 14.453125 Z M 16.679688 15.226562 " fill-opacity="1" fill-rule="nonzero"/><path fill="#000080" d="M 17.21875 13.015625 C 17.25 13.089844 17.230469 13.144531 17.15625 13.175781 C 17.082031 13.207031 17.027344 13.183594 16.996094 13.109375 C 16.964844 13.035156 16.988281 12.980469 17.0625 12.949219 C 17.136719 12.921875 17.1875 12.941406 17.21875 13.015625 Z M 17.21875 13.015625 " fill-opacity="1" fill-rule="nonzero"/><path fill="#000080" d="M 16.269531 15.539062 L 15.753906 14.5 C 15.675781 14.429688 15.519531 14.203125 15.277344 13.820312 C 15.492188 14.222656 15.605469 14.46875 15.625 14.570312 Z M 16.269531 15.539062 " fill-opacity="1" fill-rule="nonzero"/><path fill="#000080" d="M 17.363281 13.546875 C 17.371094 13.628906 17.339844 13.671875 17.257812 13.683594 C 17.179688 13.695312 17.132812 13.660156 17.121094 13.578125 C 17.113281 13.5 17.148438 13.453125 17.226562 13.441406 C 17.304688 13.433594 17.351562 13.46875 17.363281 13.546875 Z M 17.363281 13.546875 " fill-opacity="1" fill-rule="nonzero"/><path fill="#000080" d="M 15.792969 15.738281 L 15.5625 14.597656 C 15.503906 14.511719 15.410156 14.253906 15.277344 13.820312 C 15.378906 14.261719 15.429688 14.535156 15.421875 14.636719 Z M 15.792969 15.738281 " fill-opacity="1" fill-rule="nonzero"/><path fill="#000080" d="M 15.664062 13.820312 C 15.664062 13.929688 15.628906 14.019531 15.550781 14.09375 C 15.476562 14.171875 15.386719 14.210938 15.277344 14.210938 C 15.171875 14.210938 15.082031 14.171875 15.007812 14.09375 C 14.929688 14.019531 14.894531 13.929688 14.894531 13.820312 C 14.894531 13.714844 14.929688 13.625 15.007812 13.546875 C 15.082031 13.472656 15.171875 13.433594 15.277344 13.433594 C 15.386719 13.433594 15.476562 13.472656 15.550781 13.546875 C 15.628906 13.625 15.664062 13.714844 15.664062 13.820312 Z M 15.664062 13.820312 " fill-opacity="1" fill-rule="nonzero"/></svg>