<svg xmlns="http://www.w3.org/2000/svg" xmlns:xlink="http://www.w3.org/1999/xlink" width="40" zoomAndPan="magnify" viewBox="0 0 30 30.000001" height="40" preserveAspectRatio="xMidYMid meet" version="1.0"><defs><clipPath id="39f75094a3"><path d="M 2.601562 2.902344 L 9 2.902344 L 9 10 L 2.601562 10 Z M 2.601562 2.902344 " clip-rule="nonzero"/></clipPath><clipPath id="667f8fa830"><path d="M 11 2.902344 L 19 2.902344 L 19 10 L 11 10 Z M 11 2.902344 " clip-rule="nonzero"/></clipPath><clipPath id="3d21a844da"><path d="M 20 2.902344 L 27.277344 2.902344 L 27.277344 10 L 20 10 Z M 20 2.902344 " clip-rule="nonzero"/></clipPath><clipPath id="4d8fdafcf4"><path d="M 2.601562 11 L 9 11 L 9 18 L 2.601562 18 Z M 2.601562 11 " clip-rule="nonzero"/></clipPath><clipPath id="1a6a3c38a6"><path d="M 20 11 L 27.277344 11 L 27.277344 18 L 20 18 Z M 20 11 " clip-rule="nonzero"/></clipPath><clipPath id="23535c93fe"><path d="M 2.601562 19 L 9 19 L 9 26.128906 L 2.601562 26.128906 Z M 2.601562 19 " clip-rule="nonzero"/></clipPath><clipPath id="91bc5f4a59"><path d="M 11 19 L 19 19 L 19 26.128906 L 11 26.128906 Z M 11 19 " clip-rule="nonzero"/></clipPath><clipPath id="5b98992efe"><path d="M 20 19 L 27.277344 19 L 27.277344 26.128906 L 20 26.128906 Z M 20 19 " clip-rule="nonzero"/></clipPath></defs><g clip-path="url(#39f75094a3)"><path fill="#ffffff" d="M 6.15625 7.78125 C 6.097656 7.816406 6.03125 7.832031 5.964844 7.832031 C 5.898438 7.832031 5.835938 7.816406 5.785156 7.789062 C 5.734375 7.753906 5.679688 7.695312 5.679688 7.585938 L 5.695312 6.402344 L 5.679688 5.148438 C 5.664062 5.167969 5.644531 5.1875 5.625 5.210938 C 5.582031 5.25 5.542969 5.292969 5.507812 5.335938 C 5.464844 5.382812 5.414062 5.425781 5.363281 5.472656 C 5.28125 5.519531 5.207031 5.535156 5.140625 5.519531 C 5.070312 5.503906 5.015625 5.476562 4.972656 5.429688 C 4.925781 5.382812 4.902344 5.320312 4.902344 5.25 C 4.902344 5.175781 4.941406 5.101562 5.011719 5.035156 L 5.175781 4.878906 C 5.195312 4.863281 5.210938 4.84375 5.226562 4.828125 C 5.289062 4.761719 5.34375 4.695312 5.390625 4.628906 C 5.441406 4.5625 5.488281 4.496094 5.53125 4.429688 C 5.570312 4.367188 5.609375 4.300781 5.648438 4.230469 C 5.683594 4.15625 5.75 4.109375 5.839844 4.105469 C 5.902344 4.101562 5.972656 4.113281 6.035156 4.152344 C 6.09375 4.1875 6.136719 4.226562 6.167969 4.265625 C 6.207031 4.308594 6.230469 4.363281 6.238281 4.421875 L 6.277344 7.574219 C 6.277344 7.664062 6.234375 7.738281 6.15625 7.78125 Z M 5.792969 2.902344 C 4.035156 2.902344 2.613281 4.308594 2.613281 6.042969 C 2.613281 7.777344 4.035156 9.183594 5.792969 9.183594 C 7.546875 9.183594 8.972656 7.777344 8.972656 6.042969 C 8.972656 4.308594 7.546875 2.902344 5.792969 2.902344 " fill-opacity="1" fill-rule="nonzero"/></g><g clip-path="url(#667f8fa830)"><path fill="#ffffff" d="M 16.113281 7.707031 C 16.09375 7.769531 16.035156 7.847656 15.875 7.871094 L 15.84375 7.871094 C 15.796875 7.867188 15.734375 7.859375 15.65625 7.855469 C 15.574219 7.851562 15.480469 7.847656 15.378906 7.84375 C 15.296875 7.84375 15.210938 7.839844 15.121094 7.839844 L 15.058594 7.839844 C 14.808594 7.832031 14.566406 7.835938 14.296875 7.839844 C 14.152344 7.84375 13.996094 7.847656 13.835938 7.855469 C 13.816406 7.859375 13.769531 7.855469 13.734375 7.828125 C 13.667969 7.78125 13.65625 7.691406 13.652344 7.628906 C 13.644531 7.519531 13.675781 7.394531 13.738281 7.253906 C 13.800781 7.117188 13.886719 6.980469 13.992188 6.84375 C 14.101562 6.707031 14.230469 6.570312 14.382812 6.441406 C 14.535156 6.304688 14.710938 6.175781 14.910156 6.050781 C 15 5.992188 15.089844 5.925781 15.164062 5.84375 C 15.238281 5.769531 15.304688 5.683594 15.359375 5.59375 C 15.410156 5.511719 15.449219 5.421875 15.480469 5.332031 C 15.507812 5.246094 15.523438 5.160156 15.523438 5.082031 C 15.523438 4.917969 15.464844 4.773438 15.351562 4.636719 C 15.25 4.519531 15.078125 4.457031 14.847656 4.457031 C 14.734375 4.457031 14.640625 4.472656 14.5625 4.507812 C 14.484375 4.539062 14.417969 4.582031 14.371094 4.640625 C 14.320312 4.695312 14.28125 4.765625 14.253906 4.847656 C 14.222656 4.933594 14.203125 5.027344 14.195312 5.132812 C 14.1875 5.183594 14.148438 5.335938 13.925781 5.335938 C 13.769531 5.335938 13.671875 5.230469 13.671875 5.050781 C 13.671875 4.90625 13.703125 4.761719 13.761719 4.625 C 13.824219 4.492188 13.90625 4.371094 14.011719 4.269531 C 14.113281 4.167969 14.238281 4.085938 14.378906 4.027344 C 14.699219 3.890625 15.09375 3.921875 15.367188 4.027344 C 15.519531 4.089844 15.652344 4.175781 15.757812 4.28125 C 15.859375 4.390625 15.9375 4.515625 15.988281 4.652344 C 16.039062 4.792969 16.0625 4.933594 16.0625 5.089844 C 16.0625 5.21875 16.042969 5.347656 16.007812 5.476562 C 15.972656 5.601562 15.921875 5.722656 15.851562 5.847656 C 15.78125 5.96875 15.691406 6.082031 15.589844 6.1875 C 15.484375 6.292969 15.363281 6.386719 15.226562 6.46875 L 15.222656 6.472656 C 15.097656 6.542969 14.96875 6.628906 14.847656 6.71875 C 14.730469 6.808594 14.632812 6.894531 14.546875 6.984375 C 14.460938 7.074219 14.394531 7.160156 14.339844 7.242188 C 14.324219 7.269531 14.3125 7.292969 14.300781 7.316406 C 14.4375 7.308594 14.585938 7.304688 14.742188 7.304688 L 15.308594 7.300781 C 15.476562 7.300781 15.628906 7.308594 15.769531 7.328125 C 15.949219 7.355469 16.046875 7.402344 16.089844 7.480469 C 16.132812 7.546875 16.140625 7.625 16.113281 7.707031 Z M 14.945312 2.902344 C 13.1875 2.902344 11.765625 4.308594 11.765625 6.042969 C 11.765625 7.777344 13.1875 9.183594 14.945312 9.183594 C 16.699219 9.183594 18.121094 7.777344 18.121094 6.042969 C 18.121094 4.308594 16.699219 2.902344 14.945312 2.902344 " fill-opacity="1" fill-rule="nonzero"/></g><g clip-path="url(#3d21a844da)"><path fill="#ffffff" d="M 23.070312 6.171875 C 23.230469 6.171875 23.332031 6.269531 23.332031 6.433594 C 23.332031 6.617188 23.359375 6.773438 23.414062 6.894531 C 23.46875 7.011719 23.542969 7.109375 23.632812 7.175781 C 23.722656 7.25 23.828125 7.300781 23.949219 7.332031 C 24.222656 7.402344 24.542969 7.394531 24.730469 7.320312 C 24.835938 7.285156 24.917969 7.234375 24.976562 7.179688 C 25.039062 7.125 25.082031 7.066406 25.105469 7.003906 C 25.132812 6.9375 25.148438 6.882812 25.148438 6.828125 C 25.148438 6.578125 25.082031 6.410156 24.941406 6.3125 C 24.800781 6.199219 24.605469 6.144531 24.367188 6.144531 C 24.242188 6.144531 24.144531 6.074219 24.109375 5.949219 C 24.085938 5.867188 24.09375 5.800781 24.128906 5.746094 C 24.148438 5.710938 24.195312 5.667969 24.28125 5.648438 C 24.578125 5.609375 24.78125 5.539062 24.898438 5.429688 C 25.011719 5.328125 25.066406 5.199219 25.066406 5.046875 C 25.066406 4.992188 25.054688 4.9375 25.03125 4.882812 C 25.003906 4.824219 24.96875 4.773438 24.917969 4.730469 C 24.863281 4.679688 24.800781 4.644531 24.722656 4.613281 C 24.574219 4.554688 24.351562 4.550781 24.167969 4.609375 C 24.085938 4.636719 24.011719 4.671875 23.949219 4.722656 C 23.890625 4.769531 23.84375 4.828125 23.808594 4.898438 C 23.773438 4.96875 23.757812 5.039062 23.761719 5.113281 C 23.761719 5.210938 23.765625 5.296875 23.765625 5.367188 C 23.765625 5.425781 23.742188 5.570312 23.53125 5.605469 C 23.46875 5.617188 23.40625 5.605469 23.359375 5.566406 C 23.289062 5.519531 23.246094 5.429688 23.230469 5.296875 L 23.230469 5.28125 C 23.230469 5.003906 23.261719 4.808594 23.324219 4.675781 C 23.390625 4.546875 23.480469 4.433594 23.585938 4.339844 C 23.695312 4.25 23.824219 4.175781 23.96875 4.125 C 24.242188 4.03125 24.578125 4.019531 24.859375 4.125 C 24.992188 4.171875 25.117188 4.242188 25.226562 4.332031 C 25.335938 4.425781 25.425781 4.535156 25.488281 4.660156 C 25.554688 4.789062 25.589844 4.9375 25.589844 5.097656 C 25.589844 5.261719 25.542969 5.441406 25.449219 5.625 C 25.417969 5.691406 25.367188 5.761719 25.296875 5.820312 C 25.28125 5.835938 25.261719 5.851562 25.242188 5.867188 C 25.285156 5.898438 25.324219 5.933594 25.359375 5.972656 C 25.433594 6.050781 25.492188 6.136719 25.539062 6.230469 C 25.582031 6.324219 25.613281 6.421875 25.632812 6.519531 C 25.652344 6.617188 25.660156 6.714844 25.660156 6.808594 C 25.660156 6.90625 25.636719 7.019531 25.597656 7.144531 C 25.550781 7.269531 25.480469 7.390625 25.378906 7.5 C 25.277344 7.609375 25.144531 7.699219 24.984375 7.777344 C 24.820312 7.847656 24.621094 7.886719 24.386719 7.886719 C 24.179688 7.886719 23.980469 7.867188 23.796875 7.828125 C 23.601562 7.785156 23.433594 7.707031 23.289062 7.601562 C 23.140625 7.496094 23.023438 7.347656 22.9375 7.160156 C 22.851562 6.980469 22.808594 6.75 22.808594 6.472656 C 22.808594 6.191406 23.007812 6.171875 23.070312 6.171875 Z M 24.09375 9.183594 C 25.851562 9.183594 27.273438 7.777344 27.273438 6.042969 C 27.273438 4.308594 25.851562 2.902344 24.09375 2.902344 C 22.339844 2.902344 20.914062 4.308594 20.914062 6.042969 C 20.914062 7.777344 22.339844 9.183594 24.09375 9.183594 " fill-opacity="1" fill-rule="nonzero"/></g><g clip-path="url(#4d8fdafcf4)"><path fill="#ffffff" d="M 7.101562 14.917969 L 7.082031 14.910156 L 7.097656 14.921875 C 7.035156 14.988281 6.90625 15.0625 6.410156 15.097656 L 6.378906 16.035156 C 6.378906 16.183594 6.277344 16.277344 6.113281 16.277344 C 5.953125 16.277344 5.855469 16.175781 5.855469 16.011719 L 5.886719 15.164062 C 5.828125 15.167969 5.75 15.167969 5.65625 15.167969 L 5.578125 15.167969 C 5.335938 15.171875 5.148438 15.164062 4.984375 15.152344 C 4.804688 15.140625 4.644531 15.121094 4.503906 15.089844 C 4.355469 15.0625 4.238281 15.015625 4.152344 14.957031 C 4.035156 14.878906 4.003906 14.753906 4.074219 14.632812 C 4.128906 14.515625 4.207031 14.359375 4.304688 14.1875 C 4.40625 14.015625 4.519531 13.832031 4.648438 13.640625 C 4.777344 13.449219 4.964844 13.199219 5.210938 12.898438 C 5.578125 12.445312 5.664062 12.40625 5.734375 12.402344 C 5.808594 12.402344 5.882812 12.417969 5.933594 12.460938 C 5.980469 12.5 6.011719 12.550781 6.023438 12.617188 C 6.035156 12.675781 6.019531 12.730469 5.984375 12.785156 L 5.984375 12.796875 L 5.953125 12.832031 C 5.929688 12.855469 5.859375 12.9375 5.738281 13.078125 C 5.617188 13.21875 5.402344 13.519531 5.101562 13.964844 C 4.871094 14.304688 4.746094 14.496094 4.675781 14.605469 C 4.730469 14.613281 4.785156 14.621094 4.84375 14.625 C 4.890625 14.628906 4.9375 14.632812 4.988281 14.632812 L 5.105469 14.644531 C 5.289062 14.652344 5.445312 14.652344 5.574219 14.652344 L 5.859375 14.652344 C 5.875 14.652344 5.890625 14.652344 5.90625 14.652344 L 5.953125 13.484375 C 5.953125 13.410156 5.980469 13.34375 6.027344 13.300781 C 6.074219 13.253906 6.132812 13.234375 6.222656 13.238281 C 6.277344 13.234375 6.453125 13.25 6.476562 13.5 L 6.4375 14.5625 C 6.515625 14.550781 6.597656 14.539062 6.679688 14.523438 C 6.882812 14.492188 6.949219 14.5 6.996094 14.523438 C 7.039062 14.546875 7.074219 14.578125 7.105469 14.613281 C 7.140625 14.664062 7.15625 14.714844 7.15625 14.765625 C 7.15625 14.820312 7.136719 14.871094 7.101562 14.917969 Z M 5.792969 11.375 C 4.035156 11.375 2.613281 12.78125 2.613281 14.515625 C 2.613281 16.25 4.035156 17.65625 5.792969 17.65625 C 7.546875 17.65625 8.972656 16.25 8.972656 14.515625 C 8.972656 12.78125 7.546875 11.375 5.792969 11.375 " fill-opacity="1" fill-rule="nonzero"/></g><path fill="#ffffff" d="M 15.882812 15.988281 C 15.613281 16.195312 15.292969 16.304688 14.9375 16.304688 C 14.910156 16.308594 14.882812 16.308594 14.855469 16.308594 C 14.746094 16.308594 14.625 16.296875 14.503906 16.273438 C 14.351562 16.25 14.207031 16.195312 14.074219 16.117188 C 13.941406 16.039062 13.828125 15.925781 13.742188 15.78125 C 13.65625 15.640625 13.613281 15.457031 13.613281 15.234375 C 13.613281 15.195312 13.613281 15.15625 13.617188 15.113281 C 13.621094 15.074219 13.625 15.03125 13.628906 14.988281 C 13.648438 14.902344 13.683594 14.847656 13.730469 14.808594 C 13.835938 14.730469 13.976562 14.730469 14.085938 14.820312 C 14.128906 14.851562 14.179688 14.917969 14.179688 15.035156 L 14.171875 15.109375 C 14.171875 15.128906 14.171875 15.148438 14.171875 15.167969 C 14.171875 15.300781 14.191406 15.410156 14.234375 15.492188 C 14.277344 15.578125 14.328125 15.640625 14.394531 15.6875 C 14.464844 15.738281 14.542969 15.769531 14.625 15.785156 C 14.722656 15.804688 14.8125 15.8125 14.902344 15.808594 C 15.019531 15.800781 15.128906 15.78125 15.246094 15.746094 C 15.355469 15.707031 15.449219 15.65625 15.53125 15.589844 C 15.613281 15.523438 15.679688 15.441406 15.730469 15.34375 C 15.78125 15.25 15.804688 15.140625 15.804688 15.011719 C 15.804688 14.75 15.726562 14.542969 15.570312 14.378906 C 15.410156 14.210938 15.199219 14.132812 14.929688 14.132812 C 14.800781 14.132812 14.667969 14.144531 14.53125 14.175781 C 14.40625 14.203125 14.253906 14.246094 14.074219 14.308594 L 14.019531 14.324219 L 13.847656 14.207031 L 13.851562 14.144531 C 13.867188 13.839844 13.878906 13.589844 13.890625 13.398438 C 13.898438 13.207031 13.910156 13.054688 13.917969 12.941406 L 13.9375 12.699219 C 13.941406 12.65625 13.945312 12.625 13.945312 12.609375 C 13.945312 12.5625 13.957031 12.539062 13.960938 12.523438 L 13.972656 12.503906 L 14 12.46875 C 14.054688 12.417969 14.15625 12.410156 14.355469 12.429688 C 14.445312 12.433594 14.558594 12.441406 14.699219 12.445312 C 15.035156 12.453125 15.433594 12.453125 15.875 12.425781 C 15.945312 12.425781 16 12.445312 16.050781 12.484375 C 16.09375 12.519531 16.140625 12.578125 16.128906 12.683594 C 16.121094 12.808594 16.050781 12.898438 15.925781 12.929688 C 15.734375 12.953125 15.550781 12.96875 15.375 12.976562 C 15.191406 12.984375 15.007812 12.992188 14.824219 12.992188 L 14.59375 12.992188 C 14.554688 12.992188 14.515625 12.988281 14.472656 12.988281 C 14.46875 13.109375 14.460938 13.222656 14.453125 13.328125 C 14.445312 13.429688 14.4375 13.539062 14.433594 13.652344 C 14.488281 13.644531 14.539062 13.640625 14.59375 13.632812 C 14.714844 13.625 14.828125 13.621094 14.933594 13.621094 C 15.167969 13.621094 15.371094 13.65625 15.539062 13.722656 C 15.722656 13.792969 15.875 13.894531 15.992188 14.027344 C 16.105469 14.160156 16.1875 14.3125 16.238281 14.484375 C 16.289062 14.652344 16.3125 14.832031 16.3125 15.019531 C 16.308594 15.441406 16.164062 15.765625 15.882812 15.988281 Z M 14.945312 11.375 C 13.1875 11.375 11.765625 12.78125 11.765625 14.515625 C 11.765625 16.25 13.1875 17.65625 14.945312 17.65625 C 16.699219 17.65625 18.121094 16.25 18.121094 14.515625 C 18.121094 12.78125 16.699219 11.375 14.945312 11.375 " fill-opacity="1" fill-rule="nonzero"/><path fill="#ffffff" d="M 23.714844 15.636719 C 23.855469 15.757812 24.066406 15.8125 24.347656 15.800781 C 24.507812 15.796875 24.640625 15.773438 24.742188 15.730469 C 24.839844 15.6875 24.921875 15.636719 24.980469 15.578125 C 25.039062 15.515625 25.078125 15.453125 25.101562 15.386719 C 25.125 15.316406 25.136719 15.25 25.136719 15.183594 C 25.136719 15.117188 25.125 15.042969 25.101562 14.957031 C 25.082031 14.875 25.042969 14.792969 24.984375 14.71875 C 24.929688 14.644531 24.847656 14.578125 24.75 14.527344 C 24.570312 14.4375 24.242188 14.429688 23.984375 14.492188 C 23.875 14.519531 23.78125 14.5625 23.699219 14.621094 C 23.546875 14.726562 23.472656 14.867188 23.472656 15.058594 C 23.472656 15.273438 23.542969 15.453125 23.683594 15.601562 L 23.714844 15.636719 " fill-opacity="1" fill-rule="nonzero"/><g clip-path="url(#1a6a3c38a6)"><path fill="#ffffff" d="M 25.652344 13.523438 C 25.625 13.597656 25.566406 13.65625 25.476562 13.695312 L 25.429688 13.707031 C 25.359375 13.707031 25.261719 13.6875 25.183594 13.59375 L 25.125 13.59375 L 25.121094 13.503906 C 25.109375 13.476562 25.089844 13.4375 25.066406 13.386719 C 25.039062 13.328125 25 13.273438 24.945312 13.214844 C 24.898438 13.160156 24.832031 13.113281 24.75 13.066406 C 24.671875 13.027344 24.578125 13.007812 24.460938 13.007812 C 24.261719 13.007812 24.097656 13.050781 23.957031 13.140625 C 23.816406 13.234375 23.699219 13.351562 23.613281 13.496094 C 23.523438 13.640625 23.453125 13.808594 23.410156 13.992188 C 23.390625 14.070312 23.375 14.152344 23.363281 14.230469 C 23.378906 14.21875 23.394531 14.207031 23.414062 14.195312 C 23.507812 14.128906 23.617188 14.074219 23.734375 14.039062 C 23.847656 14.003906 23.957031 13.980469 24.066406 13.972656 C 24.171875 13.960938 24.265625 13.957031 24.351562 13.957031 C 24.585938 13.957031 24.785156 14 24.949219 14.082031 C 25.109375 14.160156 25.242188 14.261719 25.347656 14.382812 C 25.453125 14.503906 25.527344 14.636719 25.574219 14.773438 C 25.621094 14.910156 25.640625 15.035156 25.640625 15.148438 C 25.640625 15.460938 25.542969 15.734375 25.339844 15.960938 C 25.136719 16.191406 24.800781 16.308594 24.351562 16.308594 C 24.339844 16.308594 24.332031 16.308594 24.320312 16.308594 C 23.820312 16.308594 23.441406 16.164062 23.199219 15.878906 C 22.953125 15.59375 22.828125 15.140625 22.828125 14.539062 C 22.828125 14.261719 22.863281 14 22.929688 13.753906 C 23 13.511719 23.101562 13.292969 23.234375 13.109375 C 23.367188 12.917969 23.535156 12.769531 23.726562 12.660156 C 23.921875 12.550781 24.144531 12.496094 24.386719 12.496094 C 24.554688 12.496094 24.695312 12.507812 24.820312 12.539062 C 24.945312 12.566406 25.058594 12.617188 25.160156 12.6875 C 25.257812 12.757812 25.34375 12.851562 25.421875 12.96875 C 25.492188 13.078125 25.558594 13.1875 25.621094 13.296875 C 25.664062 13.378906 25.675781 13.453125 25.652344 13.523438 Z M 24.09375 11.375 C 22.339844 11.375 20.914062 12.78125 20.914062 14.515625 C 20.914062 16.25 22.339844 17.65625 24.09375 17.65625 C 25.851562 17.65625 27.273438 16.25 27.273438 14.515625 C 27.273438 12.78125 25.851562 11.375 24.09375 11.375 " fill-opacity="1" fill-rule="nonzero"/></g><g clip-path="url(#23535c93fe)"><path fill="#ffffff" d="M 7.171875 22.945312 C 7.132812 22.984375 7.085938 23.007812 7.019531 23.019531 C 6.964844 23.035156 6.894531 23.042969 6.816406 23.042969 L 6.75 23.042969 C 6.726562 23.042969 6.699219 23.046875 6.664062 23.046875 C 6.632812 23.046875 6.621094 23.046875 6.613281 23.050781 C 6.59375 23.113281 6.570312 23.191406 6.546875 23.277344 C 6.515625 23.375 6.480469 23.480469 6.445312 23.589844 C 6.410156 23.695312 6.371094 23.804688 6.332031 23.914062 C 6.292969 24.019531 6.25 24.121094 6.210938 24.214844 C 6.171875 24.308594 6.128906 24.394531 6.085938 24.464844 C 6.042969 24.542969 5.996094 24.601562 5.949219 24.644531 C 5.902344 24.691406 5.847656 24.714844 5.785156 24.714844 C 5.785156 24.714844 5.777344 24.714844 5.773438 24.714844 C 5.71875 24.710938 5.664062 24.691406 5.625 24.65625 C 5.585938 24.632812 5.554688 24.585938 5.539062 24.53125 C 5.523438 24.476562 5.539062 24.410156 5.578125 24.355469 C 5.609375 24.304688 5.648438 24.246094 5.683594 24.179688 C 5.722656 24.117188 5.761719 24.035156 5.800781 23.933594 C 5.84375 23.828125 5.890625 23.695312 5.945312 23.535156 C 5.984375 23.40625 6.03125 23.253906 6.082031 23.074219 C 6.078125 23.074219 6.074219 23.074219 6.070312 23.074219 C 6.019531 23.078125 5.984375 23.085938 5.953125 23.089844 C 5.933594 23.097656 5.90625 23.101562 5.882812 23.105469 C 5.855469 23.109375 5.828125 23.109375 5.796875 23.109375 C 5.722656 23.117188 5.652344 23.097656 5.597656 23.054688 C 5.519531 22.988281 5.503906 22.917969 5.503906 22.867188 C 5.503906 22.800781 5.527344 22.742188 5.574219 22.6875 C 5.625 22.632812 5.695312 22.601562 5.789062 22.59375 C 5.867188 22.585938 5.925781 22.578125 5.964844 22.570312 L 6.226562 22.527344 C 6.238281 22.488281 6.246094 22.445312 6.253906 22.40625 L 6.261719 22.375 C 6.273438 22.316406 6.289062 22.261719 6.300781 22.210938 C 6.347656 22.035156 6.371094 21.871094 6.371094 21.71875 C 6.371094 21.496094 6.28125 21.457031 6.25 21.445312 C 6.058594 21.351562 5.828125 21.320312 5.484375 21.375 C 5.378906 21.394531 5.277344 21.417969 5.1875 21.4375 C 5.117188 21.453125 5.046875 21.464844 4.984375 21.476562 C 4.800781 21.507812 4.644531 21.496094 4.566406 21.410156 C 4.503906 21.347656 4.492188 21.285156 4.492188 21.246094 C 4.492188 21.121094 4.640625 21.058594 4.695312 21.03125 C 4.792969 20.988281 4.90625 20.953125 5.042969 20.917969 C 5.175781 20.886719 5.308594 20.859375 5.445312 20.839844 C 5.597656 20.816406 5.710938 20.808594 5.804688 20.808594 C 5.945312 20.808594 6.078125 20.820312 6.207031 20.847656 C 6.335938 20.875 6.457031 20.921875 6.558594 20.984375 C 6.667969 21.054688 6.753906 21.148438 6.816406 21.261719 C 6.878906 21.375 6.910156 21.511719 6.910156 21.671875 C 6.910156 21.789062 6.894531 21.933594 6.859375 22.109375 C 6.835938 22.238281 6.804688 22.371094 6.777344 22.507812 C 6.855469 22.507812 6.925781 22.507812 6.976562 22.511719 C 7.046875 22.519531 7.109375 22.542969 7.15625 22.589844 C 7.183594 22.617188 7.203125 22.648438 7.21875 22.679688 C 7.238281 22.726562 7.246094 22.773438 7.238281 22.8125 C 7.234375 22.859375 7.210938 22.90625 7.171875 22.945312 Z M 5.792969 19.847656 C 4.035156 19.847656 2.613281 21.253906 2.613281 22.988281 C 2.613281 24.722656 4.035156 26.128906 5.792969 26.128906 C 7.546875 26.128906 8.972656 24.722656 8.972656 22.988281 C 8.972656 21.253906 7.546875 19.847656 5.792969 19.847656 " fill-opacity="1" fill-rule="nonzero"/></g><path fill="#ffffff" d="M 15.71875 22.9375 C 15.636719 22.863281 15.539062 22.808594 15.417969 22.765625 C 15.300781 22.722656 15.167969 22.699219 15.019531 22.699219 C 14.863281 22.699219 14.722656 22.722656 14.59375 22.761719 C 14.46875 22.800781 14.355469 22.855469 14.261719 22.921875 C 14.171875 22.988281 14.105469 23.066406 14.054688 23.152344 C 14.007812 23.238281 13.984375 23.324219 13.984375 23.414062 C 13.984375 23.515625 14.003906 23.613281 14.042969 23.710938 C 14.082031 23.804688 14.144531 23.890625 14.226562 23.960938 C 14.308594 24.035156 14.410156 24.09375 14.542969 24.140625 C 14.804688 24.234375 15.226562 24.230469 15.464844 24.144531 C 15.589844 24.097656 15.6875 24.042969 15.761719 23.976562 C 15.835938 23.90625 15.890625 23.832031 15.921875 23.75 C 15.957031 23.664062 15.972656 23.578125 15.972656 23.492188 C 15.972656 23.382812 15.949219 23.28125 15.90625 23.183594 C 15.859375 23.085938 15.796875 23.003906 15.71875 22.9375 " fill-opacity="1" fill-rule="nonzero"/><path fill="#ffffff" d="M 15.019531 22.179688 C 15.121094 22.179688 15.210938 22.148438 15.292969 22.082031 C 15.316406 22.058594 15.34375 22.015625 15.367188 21.960938 C 15.390625 21.902344 15.402344 21.824219 15.402344 21.730469 C 15.402344 21.648438 15.363281 21.570312 15.292969 21.484375 C 15.234375 21.414062 15.144531 21.378906 15.019531 21.378906 C 14.878906 21.378906 14.773438 21.417969 14.6875 21.496094 C 14.609375 21.574219 14.570312 21.667969 14.570312 21.777344 C 14.570312 21.910156 14.609375 22.007812 14.6875 22.070312 C 14.777344 22.144531 14.882812 22.179688 15.019531 22.179688 " fill-opacity="1" fill-rule="nonzero"/><g clip-path="url(#91bc5f4a59)"><path fill="#ffffff" d="M 16.375 24.027344 C 16.296875 24.179688 16.1875 24.3125 16.046875 24.417969 C 15.910156 24.523438 15.75 24.601562 15.570312 24.652344 C 15.394531 24.703125 15.207031 24.726562 15.003906 24.726562 C 14.804688 24.726562 14.605469 24.699219 14.417969 24.644531 C 14.230469 24.589844 14.066406 24.503906 13.925781 24.398438 C 13.78125 24.285156 13.667969 24.148438 13.585938 23.988281 C 13.5 23.828125 13.460938 23.640625 13.460938 23.433594 C 13.460938 23.132812 13.558594 22.882812 13.757812 22.6875 C 13.839844 22.605469 13.933594 22.53125 14.035156 22.460938 C 14.09375 22.421875 14.152344 22.386719 14.21875 22.351562 C 14.167969 22.289062 14.132812 22.21875 14.105469 22.148438 C 14.0625 22.03125 14.042969 21.90625 14.042969 21.777344 C 14.042969 21.625 14.070312 21.492188 14.128906 21.375 C 14.1875 21.265625 14.261719 21.167969 14.355469 21.09375 C 14.453125 21.015625 14.554688 20.957031 14.667969 20.921875 C 15.007812 20.804688 15.371094 20.867188 15.640625 21.089844 C 15.730469 21.171875 15.800781 21.265625 15.851562 21.375 C 15.902344 21.484375 15.925781 21.605469 15.925781 21.738281 C 15.925781 21.886719 15.910156 22.007812 15.878906 22.113281 C 15.855469 22.1875 15.820312 22.261719 15.773438 22.335938 C 15.835938 22.371094 15.894531 22.414062 15.953125 22.457031 C 16.039062 22.519531 16.125 22.597656 16.210938 22.691406 C 16.398438 22.898438 16.496094 23.164062 16.496094 23.480469 C 16.496094 23.6875 16.453125 23.867188 16.375 24.027344 Z M 14.945312 19.847656 C 13.1875 19.847656 11.765625 21.253906 11.765625 22.988281 C 11.765625 24.722656 13.1875 26.128906 14.945312 26.128906 C 16.699219 26.128906 18.121094 24.722656 18.121094 22.988281 C 18.121094 21.253906 16.699219 19.847656 14.945312 19.847656 " fill-opacity="1" fill-rule="nonzero"/></g><path fill="#ffffff" d="M 25.046875 21.867188 C 25.007812 21.792969 24.964844 21.722656 24.917969 21.660156 C 24.863281 21.59375 24.8125 21.539062 24.761719 21.496094 C 24.710938 21.460938 24.644531 21.429688 24.554688 21.40625 C 24.460938 21.382812 24.355469 21.371094 24.238281 21.371094 C 24.085938 21.371094 23.960938 21.390625 23.859375 21.4375 C 23.753906 21.484375 23.675781 21.539062 23.613281 21.601562 C 23.550781 21.667969 23.507812 21.742188 23.480469 21.820312 C 23.453125 21.90625 23.4375 21.988281 23.4375 22.0625 C 23.4375 22.152344 23.453125 22.246094 23.480469 22.34375 C 23.503906 22.433594 23.546875 22.515625 23.605469 22.585938 C 23.667969 22.660156 23.75 22.722656 23.851562 22.769531 C 24.019531 22.847656 24.300781 22.882812 24.5625 22.78125 C 24.667969 22.738281 24.757812 22.6875 24.832031 22.621094 C 24.910156 22.554688 24.972656 22.476562 25.023438 22.386719 C 25.066406 22.296875 25.089844 22.203125 25.089844 22.101562 C 25.089844 22.019531 25.078125 21.9375 25.050781 21.867188 L 25.046875 21.867188 " fill-opacity="1" fill-rule="nonzero"/><g clip-path="url(#5b98992efe)"><path fill="#ffffff" d="M 25.648438 23.398438 C 25.589844 23.660156 25.5 23.890625 25.378906 24.082031 C 25.257812 24.277344 25.097656 24.4375 24.910156 24.546875 C 24.71875 24.660156 24.492188 24.71875 24.238281 24.71875 C 24.011719 24.71875 23.804688 24.683594 23.625 24.617188 C 23.445312 24.550781 23.292969 24.457031 23.171875 24.34375 C 23.050781 24.230469 22.957031 24.097656 22.894531 23.953125 C 22.835938 23.808594 22.804688 23.65625 22.804688 23.5 C 22.804688 23.359375 22.878906 23.261719 23.015625 23.226562 C 23.109375 23.207031 23.167969 23.230469 23.207031 23.257812 C 23.265625 23.292969 23.304688 23.359375 23.320312 23.449219 L 23.210938 23.472656 L 23.320312 23.460938 C 23.332031 23.566406 23.355469 23.65625 23.394531 23.746094 C 23.433594 23.835938 23.492188 23.917969 23.5625 23.988281 C 23.632812 24.058594 23.726562 24.113281 23.832031 24.15625 C 23.941406 24.199219 24.070312 24.21875 24.21875 24.21875 C 24.542969 24.21875 24.78125 24.074219 24.945312 23.777344 C 25.0625 23.578125 25.140625 23.328125 25.1875 23.039062 C 25.183594 23.042969 25.179688 23.046875 25.175781 23.050781 C 25.074219 23.132812 24.972656 23.191406 24.867188 23.238281 C 24.765625 23.28125 24.65625 23.316406 24.546875 23.332031 C 24.445312 23.351562 24.347656 23.359375 24.253906 23.359375 C 23.777344 23.359375 23.429688 23.234375 23.214844 22.984375 C 23.015625 22.75 22.917969 22.441406 22.917969 22.074219 C 22.917969 21.742188 23.03125 21.457031 23.253906 21.214844 C 23.484375 20.972656 23.816406 20.855469 24.238281 20.855469 C 24.683594 20.855469 25.050781 21.003906 25.324219 21.304688 C 25.597656 21.597656 25.734375 22.023438 25.734375 22.578125 C 25.734375 22.867188 25.707031 23.144531 25.648438 23.398438 Z M 24.09375 19.847656 C 22.339844 19.847656 20.914062 21.253906 20.914062 22.988281 C 20.914062 24.722656 22.339844 26.128906 24.09375 26.128906 C 25.851562 26.128906 27.273438 24.722656 27.273438 22.988281 C 27.273438 21.253906 25.851562 19.847656 24.09375 19.847656 " fill-opacity="1" fill-rule="nonzero"/></g></svg>