<svg xmlns="http://www.w3.org/2000/svg" xmlns:xlink="http://www.w3.org/1999/xlink" width="40" zoomAndPan="magnify" viewBox="0 0 30 30.000001" height="40" preserveAspectRatio="xMidYMid meet" version="1.0"><defs><clipPath id="06d9695951"><path d="M 1.953125 0 L 28.082031 0 L 28.082031 29.03125 L 1.953125 29.03125 Z M 1.953125 0 " clip-rule="nonzero"/></clipPath></defs><g clip-path="url(#06d9695951)"><path fill="#ffffff" d="M 15.5 3.851562 C 15.464844 3.886719 15.421875 3.890625 15.390625 3.890625 C 15.351562 3.890625 15.308594 3.878906 15.273438 3.859375 C 15.246094 3.84375 15.222656 3.824219 15.207031 3.796875 C 15.226562 3.761719 15.242188 3.730469 15.261719 3.703125 C 15.28125 3.671875 15.316406 3.636719 15.363281 3.621094 C 15.375 3.617188 15.386719 3.617188 15.398438 3.617188 C 15.449219 3.617188 15.5 3.644531 15.523438 3.683594 C 15.550781 3.734375 15.542969 3.808594 15.5 3.851562 Z M 15.398438 3.507812 C 15.378906 3.507812 15.355469 3.507812 15.332031 3.515625 C 15.257812 3.539062 15.203125 3.59375 15.171875 3.636719 C 15.167969 3.644531 15.160156 3.652344 15.15625 3.660156 C 15.152344 3.644531 15.152344 3.628906 15.148438 3.609375 C 15.136719 3.480469 15.121094 3.339844 15.101562 3.199219 C 15.089844 3.113281 15.066406 3.023438 14.984375 2.984375 C 14.964844 2.972656 14.941406 2.96875 14.917969 2.96875 C 14.859375 2.96875 14.796875 3.003906 14.757812 3.054688 C 14.714844 3.113281 14.699219 3.1875 14.691406 3.246094 L 14.667969 3.359375 C 14.644531 3.257812 14.605469 3.144531 14.507812 3.058594 C 14.5 3.050781 14.484375 3.042969 14.472656 3.042969 C 14.457031 3.042969 14.441406 3.050781 14.429688 3.0625 C 14.410156 3.082031 14.410156 3.117188 14.433594 3.140625 C 14.554688 3.253906 14.574219 3.429688 14.589844 3.601562 C 14.59375 3.640625 14.597656 3.679688 14.605469 3.71875 C 14.609375 3.746094 14.628906 3.765625 14.65625 3.765625 C 14.65625 3.765625 14.660156 3.765625 14.660156 3.765625 C 14.6875 3.765625 14.707031 3.746094 14.714844 3.71875 L 14.796875 3.265625 C 14.808594 3.214844 14.820312 3.160156 14.847656 3.121094 C 14.867188 3.097656 14.894531 3.078125 14.917969 3.078125 C 14.925781 3.078125 14.933594 3.082031 14.9375 3.082031 C 14.972656 3.101562 14.984375 3.160156 14.992188 3.210938 C 15.007812 3.351562 15.023438 3.492188 15.039062 3.621094 C 15.042969 3.667969 15.054688 3.734375 15.082031 3.800781 C 15.078125 3.804688 15.074219 3.8125 15.070312 3.820312 C 15.0625 3.832031 15.054688 3.847656 15.046875 3.863281 C 15.015625 3.914062 14.984375 3.960938 14.949219 4.007812 C 14.914062 4.054688 14.828125 4.167969 14.746094 4.167969 C 14.738281 4.167969 14.734375 4.164062 14.726562 4.164062 C 14.722656 4.164062 14.71875 4.164062 14.714844 4.164062 C 14.691406 4.164062 14.667969 4.179688 14.664062 4.207031 C 14.65625 4.234375 14.675781 4.265625 14.703125 4.273438 C 14.71875 4.277344 14.734375 4.277344 14.746094 4.277344 C 14.882812 4.277344 14.988281 4.140625 15.039062 4.074219 C 15.078125 4.023438 15.109375 3.96875 15.140625 3.917969 L 15.148438 3.902344 C 15.167969 3.921875 15.191406 3.941406 15.214844 3.953125 C 15.269531 3.984375 15.328125 4.003906 15.390625 4.003906 C 15.464844 4.003906 15.527344 3.976562 15.574219 3.929688 C 15.65625 3.855469 15.671875 3.722656 15.617188 3.628906 C 15.574219 3.554688 15.488281 3.507812 15.398438 3.507812 Z M 18.34375 10.160156 C 18.351562 10.175781 18.367188 10.246094 18.175781 10.460938 L 18.175781 10.128906 C 18.191406 10.125 18.207031 10.125 18.222656 10.125 C 18.289062 10.125 18.332031 10.136719 18.34375 10.160156 Z M 17.675781 9.902344 C 17.679688 9.902344 17.679688 9.902344 17.683594 9.902344 C 17.683594 9.902344 17.710938 9.917969 17.710938 10.027344 L 17.710938 10.640625 C 17.710938 10.667969 17.738281 10.695312 17.769531 10.695312 C 17.796875 10.695312 17.824219 10.667969 17.824219 10.640625 L 17.824219 10.050781 C 17.890625 9.976562 17.984375 9.902344 18.027344 9.902344 C 18.03125 9.902344 18.035156 9.902344 18.035156 9.902344 C 18.039062 9.902344 18.066406 9.917969 18.066406 10.03125 L 18.066406 10.578125 C 18.019531 10.625 17.96875 10.675781 17.90625 10.730469 C 17.882812 10.75 17.882812 10.785156 17.902344 10.808594 C 17.914062 10.816406 17.929688 10.824219 17.945312 10.824219 C 17.957031 10.824219 17.972656 10.820312 17.980469 10.8125 C 18.019531 10.777344 18.054688 10.742188 18.089844 10.710938 C 18.113281 10.753906 18.171875 10.800781 18.285156 10.824219 C 18.289062 10.824219 18.292969 10.824219 18.296875 10.824219 C 18.324219 10.824219 18.34375 10.804688 18.351562 10.78125 C 18.355469 10.75 18.335938 10.722656 18.308594 10.714844 C 18.195312 10.691406 18.179688 10.652344 18.175781 10.636719 L 18.175781 10.625 C 18.410156 10.382812 18.496094 10.21875 18.441406 10.113281 C 18.410156 10.046875 18.335938 10.015625 18.222656 10.015625 C 18.207031 10.015625 18.191406 10.015625 18.175781 10.015625 L 18.175781 9.988281 C 18.175781 9.984375 18.175781 9.980469 18.175781 9.980469 C 18.167969 9.917969 18.152344 9.828125 18.074219 9.800781 C 18.0625 9.796875 18.046875 9.792969 18.03125 9.792969 C 17.953125 9.792969 17.871094 9.851562 17.808594 9.910156 C 17.796875 9.863281 17.769531 9.820312 17.722656 9.800781 C 17.707031 9.796875 17.691406 9.792969 17.675781 9.792969 C 17.605469 9.792969 17.523438 9.851562 17.460938 9.90625 C 17.445312 9.84375 17.40625 9.796875 17.339844 9.792969 L 17.335938 9.792969 C 17.308594 9.792969 17.28125 9.816406 17.28125 9.84375 C 17.28125 9.875 17.304688 9.902344 17.332031 9.902344 C 17.351562 9.902344 17.359375 9.957031 17.359375 9.988281 L 17.359375 10.640625 C 17.359375 10.667969 17.382812 10.695312 17.414062 10.695312 C 17.445312 10.695312 17.46875 10.667969 17.46875 10.640625 L 17.46875 10.050781 C 17.539062 9.976562 17.632812 9.902344 17.675781 9.902344 Z M 20.144531 9.953125 C 20.144531 9.980469 20.167969 10.007812 20.199219 10.007812 C 20.21875 10.011719 20.222656 10.066406 20.222656 10.09375 L 20.222656 10.746094 C 20.222656 10.777344 20.25 10.800781 20.277344 10.800781 C 20.308594 10.800781 20.335938 10.777344 20.335938 10.746094 L 20.335938 10.160156 C 20.402344 10.082031 20.496094 10.007812 20.539062 10.007812 C 20.542969 10.007812 20.546875 10.007812 20.546875 10.011719 C 20.546875 10.011719 20.578125 10.023438 20.578125 10.136719 L 20.578125 10.746094 C 20.578125 10.777344 20.601562 10.800781 20.632812 10.800781 C 20.664062 10.800781 20.6875 10.777344 20.6875 10.746094 L 20.6875 10.160156 C 20.753906 10.082031 20.847656 10.007812 20.890625 10.007812 C 20.894531 10.007812 20.898438 10.007812 20.902344 10.011719 C 20.902344 10.011719 20.929688 10.023438 20.929688 10.136719 L 20.929688 10.726562 C 20.925781 10.761719 20.933594 10.886719 21.148438 10.929688 C 21.152344 10.929688 21.15625 10.933594 21.160156 10.933594 C 21.1875 10.933594 21.210938 10.914062 21.214844 10.886719 C 21.222656 10.859375 21.203125 10.828125 21.171875 10.824219 C 21.058594 10.800781 21.042969 10.757812 21.039062 10.742188 L 21.039062 10.09375 C 21.039062 10.089844 21.039062 10.089844 21.039062 10.085938 C 21.035156 10.023438 21.015625 9.933594 20.9375 9.90625 C 20.925781 9.902344 20.910156 9.898438 20.894531 9.898438 C 20.820312 9.898438 20.734375 9.957031 20.671875 10.015625 C 20.660156 9.96875 20.636719 9.925781 20.585938 9.90625 C 20.570312 9.902344 20.558594 9.898438 20.542969 9.898438 C 20.46875 9.898438 20.386719 9.957031 20.324219 10.011719 C 20.308594 9.953125 20.269531 9.902344 20.203125 9.898438 C 20.171875 9.898438 20.148438 9.921875 20.144531 9.953125 Z M 20.261719 8.164062 C 20.261719 8.195312 20.285156 8.21875 20.316406 8.21875 L 20.621094 8.21875 C 20.628906 8.21875 20.636719 8.21875 20.644531 8.214844 C 20.644531 8.210938 20.648438 8.210938 20.648438 8.210938 C 20.652344 8.207031 20.660156 8.203125 20.660156 8.199219 C 20.664062 8.199219 20.664062 8.199219 20.664062 8.195312 C 20.667969 8.195312 20.667969 8.191406 20.667969 8.191406 C 20.667969 8.1875 20.671875 8.183594 20.671875 8.179688 C 20.671875 8.175781 20.671875 8.171875 20.675781 8.171875 C 20.675781 8.167969 20.675781 8.167969 20.675781 8.164062 C 20.675781 8.164062 20.675781 8.160156 20.675781 8.160156 C 20.675781 8.15625 20.671875 8.152344 20.671875 8.148438 C 20.671875 8.144531 20.671875 8.140625 20.667969 8.140625 C 20.667969 8.136719 20.664062 8.132812 20.664062 8.128906 C 20.660156 8.128906 20.660156 8.125 20.65625 8.121094 C 20.65625 8.121094 20.652344 8.121094 20.652344 8.121094 C 20.613281 8.089844 20.589844 8.046875 20.589844 8.003906 C 20.589844 7.917969 20.675781 7.851562 20.777344 7.851562 C 20.882812 7.851562 20.964844 7.917969 20.964844 8.003906 C 20.964844 8.046875 20.941406 8.089844 20.902344 8.121094 C 20.902344 8.121094 20.902344 8.121094 20.898438 8.121094 C 20.898438 8.125 20.894531 8.128906 20.890625 8.128906 C 20.890625 8.132812 20.886719 8.136719 20.886719 8.140625 C 20.886719 8.140625 20.882812 8.144531 20.882812 8.148438 C 20.882812 8.152344 20.882812 8.15625 20.878906 8.160156 C 20.878906 8.160156 20.878906 8.164062 20.878906 8.164062 C 20.878906 8.167969 20.878906 8.167969 20.882812 8.171875 C 20.882812 8.171875 20.882812 8.175781 20.882812 8.179688 C 20.882812 8.183594 20.886719 8.1875 20.886719 8.191406 C 20.890625 8.191406 20.890625 8.195312 20.890625 8.195312 C 20.890625 8.199219 20.894531 8.199219 20.894531 8.199219 C 20.898438 8.203125 20.902344 8.207031 20.90625 8.210938 C 20.90625 8.210938 20.910156 8.210938 20.910156 8.214844 C 20.917969 8.21875 20.925781 8.21875 20.933594 8.21875 L 21.210938 8.21875 C 21.242188 8.21875 21.265625 8.195312 21.265625 8.164062 C 21.265625 8.132812 21.242188 8.109375 21.210938 8.109375 L 21.050781 8.109375 C 21.066406 8.078125 21.074219 8.039062 21.074219 8.003906 C 21.074219 7.859375 20.941406 7.738281 20.777344 7.738281 C 20.613281 7.738281 20.480469 7.859375 20.480469 8.003906 C 20.480469 8.039062 20.488281 8.078125 20.503906 8.109375 L 20.316406 8.109375 C 20.285156 8.109375 20.261719 8.132812 20.261719 8.164062 Z M 21.210938 8.367188 L 20.316406 8.367188 C 20.285156 8.367188 20.261719 8.394531 20.261719 8.421875 C 20.261719 8.453125 20.285156 8.480469 20.316406 8.480469 L 21.210938 8.480469 C 21.242188 8.480469 21.265625 8.453125 21.265625 8.421875 C 21.265625 8.394531 21.242188 8.367188 21.210938 8.367188 Z M 20.144531 13.144531 C 20.15625 13.15625 20.167969 13.164062 20.183594 13.164062 C 20.199219 13.164062 20.210938 13.15625 20.222656 13.148438 L 20.488281 12.886719 L 20.621094 13.019531 C 20.628906 13.03125 20.644531 13.035156 20.660156 13.035156 C 20.671875 13.035156 20.6875 13.03125 20.699219 13.019531 C 20.71875 13 20.71875 12.964844 20.699219 12.941406 L 20.566406 12.8125 L 20.910156 12.46875 L 20.910156 12.78125 C 20.910156 12.8125 20.9375 12.835938 20.96875 12.835938 C 20.996094 12.835938 21.023438 12.8125 21.023438 12.78125 L 21.023438 12.339844 C 21.023438 12.335938 21.023438 12.335938 21.019531 12.332031 C 21.019531 12.328125 21.019531 12.324219 21.019531 12.316406 C 21.015625 12.3125 21.015625 12.3125 21.011719 12.308594 C 21.011719 12.304688 21.007812 12.300781 21.007812 12.300781 C 21.003906 12.296875 21 12.292969 20.996094 12.292969 C 20.988281 12.285156 20.976562 12.285156 20.96875 12.285156 L 20.523438 12.285156 C 20.492188 12.285156 20.46875 12.308594 20.46875 12.339844 C 20.46875 12.371094 20.492188 12.394531 20.523438 12.394531 L 20.832031 12.394531 L 20.488281 12.734375 L 20.355469 12.601562 C 20.34375 12.589844 20.332031 12.585938 20.316406 12.585938 C 20.300781 12.585938 20.289062 12.589844 20.277344 12.601562 C 20.265625 12.609375 20.261719 12.625 20.261719 12.640625 C 20.261719 12.65625 20.265625 12.667969 20.277344 12.679688 L 20.40625 12.808594 L 20.144531 13.066406 C 20.121094 13.089844 20.121094 13.125 20.144531 13.144531 Z M 18.15625 5.074219 C 18.214844 5.074219 18.261719 5.125 18.261719 5.183594 C 18.261719 5.242188 18.214844 5.292969 18.15625 5.292969 C 18.09375 5.292969 18.046875 5.242188 18.046875 5.183594 C 18.046875 5.125 18.09375 5.074219 18.15625 5.074219 Z M 17.371094 5.371094 C 17.375 5.382812 17.386719 5.394531 17.398438 5.398438 C 17.542969 5.457031 17.683594 5.484375 17.816406 5.484375 C 18.023438 5.484375 18.15625 5.417969 18.191406 5.398438 C 18.296875 5.382812 18.375 5.292969 18.375 5.183594 C 18.375 5.0625 18.277344 4.964844 18.15625 4.964844 C 18.03125 4.964844 17.933594 5.0625 17.933594 5.183594 C 17.933594 5.25 17.964844 5.308594 18.011719 5.351562 C 17.960938 5.363281 17.894531 5.375 17.816406 5.375 C 17.695312 5.375 17.570312 5.347656 17.441406 5.296875 C 17.433594 5.292969 17.429688 5.292969 17.421875 5.292969 C 17.398438 5.292969 17.378906 5.304688 17.371094 5.328125 C 17.363281 5.339844 17.363281 5.355469 17.371094 5.371094 Z M 17.585938 5.042969 C 17.523438 5.042969 17.476562 4.992188 17.476562 4.933594 C 17.476562 4.871094 17.523438 4.824219 17.585938 4.824219 C 17.644531 4.824219 17.695312 4.871094 17.695312 4.933594 C 17.695312 4.992188 17.644531 5.042969 17.585938 5.042969 Z M 18.296875 4.820312 C 18.304688 4.820312 18.3125 4.824219 18.320312 4.824219 C 18.339844 4.824219 18.363281 4.808594 18.371094 4.789062 C 18.382812 4.757812 18.367188 4.726562 18.339844 4.714844 C 18.199219 4.660156 18.058594 4.628906 17.921875 4.628906 C 17.71875 4.628906 17.582031 4.695312 17.546875 4.714844 C 17.445312 4.734375 17.367188 4.824219 17.367188 4.933594 C 17.367188 5.054688 17.464844 5.152344 17.585938 5.152344 C 17.707031 5.152344 17.804688 5.054688 17.804688 4.933594 C 17.804688 4.863281 17.773438 4.804688 17.726562 4.765625 C 17.777344 4.753906 17.84375 4.742188 17.921875 4.742188 C 18.042969 4.742188 18.171875 4.769531 18.296875 4.820312 Z M 17.519531 7.261719 C 17.609375 7.261719 17.683594 7.335938 17.683594 7.425781 C 17.683594 7.515625 17.609375 7.589844 17.519531 7.589844 C 17.425781 7.589844 17.351562 7.515625 17.351562 7.425781 C 17.351562 7.335938 17.425781 7.261719 17.519531 7.261719 Z M 17.242188 7.425781 C 17.242188 7.578125 17.367188 7.703125 17.519531 7.703125 C 17.671875 7.703125 17.796875 7.578125 17.796875 7.425781 C 17.796875 7.335938 17.753906 7.257812 17.683594 7.207031 C 17.6875 7.203125 17.6875 7.203125 17.6875 7.199219 C 17.695312 7.179688 17.699219 7.160156 17.703125 7.140625 C 17.714844 7.085938 17.726562 7.035156 17.757812 6.996094 C 17.792969 6.949219 17.847656 6.921875 17.902344 6.921875 C 17.953125 6.921875 17.996094 6.941406 18.03125 6.976562 C 18.089844 7.039062 18.125 7.144531 18.121094 7.246094 C 18.117188 7.371094 18.058594 7.480469 17.9375 7.578125 C 17.847656 7.648438 17.808594 7.742188 17.828125 7.839844 C 17.847656 7.929688 17.917969 8.003906 18.007812 8.03125 C 18.027344 8.035156 18.046875 8.039062 18.066406 8.039062 C 18.136719 8.039062 18.203125 8.007812 18.257812 7.949219 C 18.265625 7.941406 18.273438 7.925781 18.273438 7.910156 C 18.269531 7.898438 18.265625 7.882812 18.253906 7.871094 C 18.242188 7.863281 18.230469 7.859375 18.214844 7.859375 C 18.199219 7.859375 18.1875 7.863281 18.175781 7.875 C 18.144531 7.910156 18.105469 7.929688 18.066406 7.929688 C 18.058594 7.929688 18.046875 7.925781 18.035156 7.925781 C 17.988281 7.910156 17.949219 7.867188 17.9375 7.816406 C 17.925781 7.761719 17.949219 7.707031 18.003906 7.664062 C 18.152344 7.542969 18.226562 7.410156 18.234375 7.25 C 18.238281 7.117188 18.191406 6.980469 18.113281 6.902344 C 18.054688 6.84375 17.984375 6.8125 17.902344 6.8125 C 17.8125 6.8125 17.722656 6.855469 17.667969 6.929688 C 17.621094 6.988281 17.609375 7.054688 17.59375 7.117188 C 17.589844 7.128906 17.589844 7.144531 17.585938 7.15625 C 17.5625 7.152344 17.542969 7.148438 17.519531 7.148438 C 17.367188 7.148438 17.242188 7.273438 17.242188 7.425781 Z M 14.8125 9.679688 C 14.78125 9.679688 14.753906 9.703125 14.753906 9.734375 C 14.753906 9.765625 14.78125 9.789062 14.8125 9.789062 C 14.96875 9.789062 15.09375 9.570312 15.101562 9.285156 L 15.269531 9.285156 C 15.277344 9.570312 15.402344 9.789062 15.558594 9.789062 C 15.589844 9.789062 15.617188 9.765625 15.617188 9.734375 C 15.617188 9.703125 15.589844 9.679688 15.558594 9.679688 C 15.488281 9.679688 15.386719 9.527344 15.378906 9.285156 L 15.558594 9.285156 C 15.589844 9.285156 15.617188 9.257812 15.617188 9.226562 C 15.617188 9.199219 15.589844 9.171875 15.558594 9.171875 L 15.382812 9.171875 C 15.398438 8.953125 15.492188 8.820312 15.558594 8.820312 C 15.589844 8.820312 15.617188 8.796875 15.617188 8.765625 C 15.617188 8.734375 15.589844 8.710938 15.558594 8.710938 C 15.410156 8.710938 15.289062 8.910156 15.269531 9.171875 L 15.101562 9.171875 C 15.082031 8.910156 14.960938 8.710938 14.8125 8.710938 C 14.78125 8.710938 14.753906 8.734375 14.753906 8.765625 C 14.753906 8.796875 14.78125 8.820312 14.8125 8.820312 C 14.878906 8.820312 14.972656 8.953125 14.988281 9.171875 L 14.8125 9.171875 C 14.78125 9.171875 14.753906 9.199219 14.753906 9.226562 C 14.753906 9.257812 14.78125 9.285156 14.8125 9.285156 L 14.992188 9.285156 C 14.984375 9.527344 14.882812 9.679688 14.8125 9.679688 Z M 14.957031 6.871094 C 14.984375 6.832031 14.992188 6.816406 15.011719 6.816406 C 15.027344 6.816406 15.035156 6.832031 15.0625 6.871094 C 15.085938 6.910156 15.128906 6.972656 15.207031 6.972656 C 15.289062 6.972656 15.328125 6.910156 15.351562 6.871094 C 15.378906 6.832031 15.390625 6.816406 15.40625 6.816406 C 15.421875 6.816406 15.433594 6.832031 15.457031 6.871094 C 15.484375 6.910156 15.523438 6.972656 15.601562 6.972656 C 15.632812 6.972656 15.65625 6.949219 15.65625 6.917969 C 15.65625 6.890625 15.632812 6.863281 15.601562 6.863281 C 15.585938 6.863281 15.574219 6.851562 15.550781 6.8125 C 15.523438 6.769531 15.484375 6.707031 15.40625 6.707031 C 15.324219 6.707031 15.285156 6.769531 15.257812 6.8125 C 15.234375 6.851562 15.222656 6.863281 15.207031 6.863281 C 15.191406 6.863281 15.179688 6.851562 15.15625 6.8125 C 15.128906 6.769531 15.089844 6.707031 15.011719 6.707031 C 14.929688 6.707031 14.890625 6.769531 14.863281 6.8125 C 14.839844 6.851562 14.828125 6.863281 14.8125 6.863281 C 14.796875 6.863281 14.785156 6.851562 14.761719 6.8125 C 14.734375 6.769531 14.695312 6.707031 14.617188 6.707031 C 14.585938 6.707031 14.558594 6.730469 14.558594 6.761719 C 14.558594 6.792969 14.585938 6.816406 14.617188 6.816406 C 14.632812 6.816406 14.640625 6.832031 14.667969 6.871094 C 14.691406 6.910156 14.734375 6.972656 14.8125 6.972656 C 14.890625 6.972656 14.933594 6.910156 14.957031 6.871094 Z M 15.601562 6.429688 C 15.585938 6.429688 15.574219 6.417969 15.550781 6.378906 C 15.523438 6.335938 15.484375 6.273438 15.40625 6.273438 C 15.324219 6.273438 15.285156 6.335938 15.257812 6.378906 C 15.234375 6.417969 15.222656 6.429688 15.207031 6.429688 C 15.191406 6.429688 15.179688 6.417969 15.15625 6.378906 C 15.128906 6.335938 15.089844 6.273438 15.011719 6.273438 C 14.929688 6.273438 14.890625 6.335938 14.863281 6.378906 C 14.839844 6.417969 14.828125 6.429688 14.8125 6.429688 C 14.796875 6.429688 14.785156 6.417969 14.761719 6.378906 C 14.734375 6.335938 14.695312 6.273438 14.617188 6.273438 C 14.585938 6.273438 14.558594 6.296875 14.558594 6.328125 C 14.558594 6.359375 14.585938 6.382812 14.617188 6.382812 C 14.632812 6.382812 14.640625 6.398438 14.667969 6.4375 C 14.691406 6.480469 14.734375 6.542969 14.8125 6.542969 C 14.890625 6.542969 14.933594 6.480469 14.957031 6.4375 C 14.984375 6.398438 14.992188 6.382812 15.011719 6.382812 C 15.027344 6.382812 15.035156 6.398438 15.0625 6.4375 C 15.085938 6.480469 15.128906 6.542969 15.207031 6.542969 C 15.289062 6.542969 15.328125 6.480469 15.351562 6.4375 C 15.378906 6.398438 15.390625 6.382812 15.40625 6.382812 C 15.421875 6.382812 15.433594 6.398438 15.457031 6.4375 C 15.484375 6.480469 15.523438 6.542969 15.601562 6.542969 C 15.632812 6.542969 15.65625 6.515625 15.65625 6.488281 C 15.65625 6.457031 15.632812 6.429688 15.601562 6.429688 Z M 11.414062 3.726562 C 11.417969 3.726562 11.425781 3.726562 11.433594 3.726562 C 11.523438 3.75 11.5625 3.863281 11.59375 3.984375 C 11.621094 4.105469 11.640625 4.234375 11.644531 4.367188 C 11.640625 4.417969 11.640625 4.464844 11.644531 4.515625 C 11.644531 4.519531 11.644531 4.523438 11.644531 4.527344 C 11.648438 4.527344 11.648438 4.53125 11.648438 4.535156 C 11.648438 4.539062 11.652344 4.542969 11.65625 4.546875 C 11.65625 4.546875 11.65625 4.550781 11.660156 4.550781 C 11.664062 4.554688 11.667969 4.558594 11.671875 4.558594 C 11.671875 4.5625 11.675781 4.5625 11.675781 4.5625 C 11.679688 4.566406 11.683594 4.566406 11.6875 4.566406 C 11.691406 4.566406 11.695312 4.570312 11.695312 4.570312 L 11.699219 4.570312 C 11.703125 4.570312 11.707031 4.566406 11.707031 4.566406 C 11.714844 4.566406 11.71875 4.566406 11.722656 4.5625 C 11.722656 4.5625 11.726562 4.5625 11.726562 4.558594 C 11.730469 4.558594 11.734375 4.554688 11.738281 4.550781 C 11.742188 4.550781 11.742188 4.546875 11.742188 4.546875 C 11.746094 4.542969 11.75 4.539062 11.75 4.535156 C 11.75 4.53125 11.75 4.527344 11.753906 4.527344 C 11.753906 4.523438 11.753906 4.519531 11.753906 4.515625 C 11.757812 4.464844 11.757812 4.417969 11.753906 4.367188 C 11.757812 4.234375 11.777344 4.105469 11.804688 3.984375 C 11.835938 3.863281 11.875 3.75 11.964844 3.726562 C 11.972656 3.726562 11.980469 3.726562 11.984375 3.726562 C 12.019531 3.726562 12.054688 3.742188 12.070312 3.769531 C 12.089844 3.800781 12.089844 3.851562 12.066406 3.882812 C 12.046875 3.90625 12.054688 3.941406 12.078125 3.957031 C 12.085938 3.964844 12.097656 3.96875 12.109375 3.96875 C 12.128906 3.96875 12.144531 3.960938 12.15625 3.949219 C 12.207031 3.878906 12.210938 3.78125 12.164062 3.710938 C 12.125 3.652344 12.058594 3.613281 11.988281 3.613281 C 11.972656 3.613281 11.957031 3.617188 11.941406 3.621094 C 11.773438 3.660156 11.726562 3.851562 11.699219 3.957031 C 11.671875 3.851562 11.625 3.660156 11.457031 3.621094 C 11.441406 3.617188 11.425781 3.613281 11.410156 3.613281 C 11.339844 3.613281 11.273438 3.652344 11.234375 3.710938 C 11.1875 3.78125 11.191406 3.878906 11.242188 3.949219 C 11.253906 3.960938 11.269531 3.96875 11.289062 3.96875 C 11.300781 3.96875 11.3125 3.964844 11.320312 3.957031 C 11.332031 3.949219 11.339844 3.9375 11.34375 3.921875 C 11.34375 3.90625 11.339844 3.894531 11.332031 3.882812 C 11.308594 3.851562 11.308594 3.800781 11.328125 3.769531 C 11.34375 3.742188 11.378906 3.726562 11.414062 3.726562 Z M 12.402344 9.949219 C 12.378906 9.945312 12.351562 9.945312 12.328125 9.945312 L 12.308594 9.945312 C 12.28125 9.945312 12.253906 9.945312 12.230469 9.949219 L 12.230469 9.324219 C 12.253906 9.328125 12.28125 9.328125 12.308594 9.328125 L 12.328125 9.328125 C 12.351562 9.328125 12.378906 9.328125 12.402344 9.324219 Z M 12.75 9.246094 C 12.777344 9.234375 12.785156 9.199219 12.773438 9.171875 C 12.761719 9.15625 12.742188 9.144531 12.722656 9.144531 C 12.714844 9.144531 12.703125 9.144531 12.695312 9.148438 C 12.617188 9.191406 12.476562 9.21875 12.328125 9.21875 L 12.308594 9.21875 C 12.15625 9.21875 12.019531 9.191406 11.9375 9.148438 C 11.929688 9.144531 11.921875 9.144531 11.910156 9.144531 C 11.890625 9.144531 11.871094 9.15625 11.863281 9.171875 C 11.855469 9.1875 11.855469 9.203125 11.859375 9.214844 C 11.863281 9.230469 11.871094 9.242188 11.886719 9.246094 C 11.945312 9.277344 12.027344 9.300781 12.121094 9.316406 L 12.121094 9.960938 C 12.027344 9.972656 11.945312 9.996094 11.886719 10.027344 C 11.859375 10.039062 11.847656 10.074219 11.863281 10.101562 C 11.871094 10.121094 11.890625 10.128906 11.910156 10.128906 C 11.921875 10.128906 11.929688 10.128906 11.9375 10.125 C 12.019531 10.082031 12.15625 10.058594 12.308594 10.058594 L 12.328125 10.058594 C 12.476562 10.058594 12.617188 10.082031 12.695312 10.125 C 12.703125 10.128906 12.714844 10.128906 12.722656 10.128906 C 12.742188 10.128906 12.761719 10.121094 12.773438 10.101562 C 12.777344 10.085938 12.78125 10.074219 12.777344 10.058594 C 12.769531 10.042969 12.761719 10.03125 12.75 10.027344 C 12.691406 9.996094 12.609375 9.972656 12.515625 9.960938 L 12.515625 9.316406 C 12.609375 9.300781 12.691406 9.277344 12.75 9.246094 Z M 12.074219 7.421875 C 11.882812 7.421875 11.726562 7.265625 11.726562 7.074219 C 11.726562 6.878906 11.882812 6.722656 12.074219 6.722656 C 12.265625 6.722656 12.421875 6.878906 12.421875 7.074219 C 12.421875 7.265625 12.265625 7.421875 12.074219 7.421875 Z M 12.074219 6.613281 C 11.980469 6.613281 11.890625 6.640625 11.820312 6.691406 C 11.808594 6.675781 11.792969 6.652344 11.792969 6.628906 C 11.792969 6.597656 11.8125 6.5625 11.851562 6.523438 C 11.875 6.503906 11.875 6.46875 11.855469 6.445312 C 11.84375 6.433594 11.828125 6.429688 11.8125 6.429688 C 11.800781 6.429688 11.785156 6.433594 11.777344 6.441406 C 11.710938 6.503906 11.679688 6.566406 11.683594 6.636719 C 11.6875 6.691406 11.710938 6.734375 11.734375 6.761719 C 11.660156 6.84375 11.613281 6.953125 11.613281 7.074219 C 11.613281 7.324219 11.820312 7.53125 12.074219 7.53125 C 12.328125 7.53125 12.535156 7.324219 12.535156 7.074219 C 12.535156 6.953125 12.488281 6.84375 12.414062 6.761719 C 12.4375 6.734375 12.460938 6.691406 12.464844 6.636719 C 12.46875 6.566406 12.4375 6.503906 12.371094 6.441406 C 12.363281 6.433594 12.347656 6.429688 12.335938 6.429688 C 12.320312 6.429688 12.304688 6.433594 12.292969 6.445312 C 12.273438 6.46875 12.273438 6.503906 12.296875 6.523438 C 12.335938 6.558594 12.355469 6.597656 12.355469 6.628906 C 12.351562 6.652344 12.339844 6.675781 12.328125 6.691406 C 12.257812 6.640625 12.167969 6.613281 12.074219 6.613281 Z M 20.414062 15.503906 C 20.414062 15.660156 20.285156 15.785156 20.128906 15.785156 C 19.972656 15.785156 19.847656 15.660156 19.847656 15.503906 C 19.847656 15.347656 19.972656 15.21875 20.128906 15.21875 C 20.285156 15.21875 20.414062 15.347656 20.414062 15.503906 Z M 20.0625 15.910156 L 20.0625 16.066406 L 19.847656 16.066406 C 19.808594 16.066406 19.78125 16.097656 19.78125 16.132812 C 19.78125 16.171875 19.808594 16.199219 19.847656 16.199219 L 20.0625 16.199219 L 20.0625 16.417969 C 20.0625 16.453125 20.09375 16.484375 20.128906 16.484375 C 20.164062 16.484375 20.195312 16.453125 20.195312 16.417969 L 20.195312 16.199219 L 20.414062 16.199219 C 20.449219 16.199219 20.480469 16.171875 20.480469 16.132812 C 20.480469 16.097656 20.449219 16.066406 20.414062 16.066406 L 20.195312 16.066406 L 20.195312 15.910156 C 20.394531 15.878906 20.542969 15.707031 20.542969 15.503906 C 20.542969 15.402344 20.507812 15.308594 20.445312 15.234375 C 20.464844 15.207031 20.484375 15.171875 20.484375 15.128906 C 20.488281 15.0625 20.460938 15.003906 20.398438 14.945312 C 20.386719 14.933594 20.371094 14.929688 20.355469 14.929688 C 20.335938 14.929688 20.320312 14.9375 20.304688 14.949219 C 20.292969 14.964844 20.289062 14.980469 20.289062 14.996094 C 20.289062 15.015625 20.296875 15.03125 20.308594 15.042969 C 20.339844 15.070312 20.355469 15.097656 20.351562 15.121094 C 20.351562 15.128906 20.347656 15.140625 20.34375 15.148438 C 20.28125 15.113281 20.207031 15.089844 20.128906 15.089844 C 20.050781 15.089844 19.976562 15.113281 19.914062 15.148438 C 19.910156 15.140625 19.90625 15.128906 19.90625 15.121094 C 19.90625 15.097656 19.917969 15.070312 19.949219 15.042969 C 19.976562 15.019531 19.976562 14.976562 19.953125 14.949219 C 19.941406 14.9375 19.921875 14.929688 19.90625 14.929688 C 19.886719 14.929688 19.871094 14.933594 19.859375 14.945312 C 19.800781 15.003906 19.769531 15.0625 19.773438 15.128906 C 19.777344 15.171875 19.796875 15.207031 19.816406 15.234375 C 19.753906 15.308594 19.714844 15.402344 19.714844 15.503906 C 19.714844 15.707031 19.867188 15.878906 20.0625 15.910156 Z M 15.78125 13.09375 C 15.875 12.910156 15.878906 12.742188 15.789062 12.617188 C 15.742188 12.550781 15.679688 12.511719 15.601562 12.5 C 15.585938 12.5 15.566406 12.496094 15.550781 12.496094 C 15.441406 12.496094 15.332031 12.546875 15.25 12.59375 L 15.25 12.082031 L 15.347656 12.082031 C 15.382812 12.082031 15.414062 12.050781 15.414062 12.015625 C 15.414062 11.980469 15.382812 11.949219 15.347656 11.949219 L 15.019531 11.949219 C 14.980469 11.949219 14.953125 11.980469 14.953125 12.015625 C 14.953125 12.050781 14.980469 12.082031 15.019531 12.082031 L 15.121094 12.082031 L 15.121094 13.222656 C 15.121094 13.261719 15.148438 13.289062 15.1875 13.289062 C 15.222656 13.289062 15.25 13.261719 15.25 13.222656 L 15.25 12.746094 C 15.304688 12.710938 15.4375 12.628906 15.550781 12.628906 C 15.558594 12.628906 15.570312 12.628906 15.582031 12.632812 C 15.625 12.636719 15.65625 12.660156 15.683594 12.695312 C 15.761719 12.804688 15.703125 12.953125 15.664062 13.03125 C 15.648438 13.054688 15.636719 13.078125 15.617188 13.105469 C 15.558594 13.199219 15.496094 13.304688 15.539062 13.433594 C 15.546875 13.457031 15.570312 13.476562 15.601562 13.476562 C 15.605469 13.476562 15.613281 13.476562 15.621094 13.472656 C 15.636719 13.46875 15.652344 13.457031 15.660156 13.441406 C 15.667969 13.425781 15.667969 13.40625 15.664062 13.390625 C 15.640625 13.320312 15.683594 13.253906 15.730469 13.175781 C 15.746094 13.148438 15.765625 13.121094 15.78125 13.09375 Z M 12.546875 12.042969 C 12.539062 12.042969 12.527344 12.042969 12.519531 12.042969 C 12.429688 12.042969 12.339844 12.089844 12.28125 12.160156 C 12.234375 12.222656 12.210938 12.296875 12.214844 12.375 C 12.21875 12.410156 12.246094 12.4375 12.28125 12.4375 L 12.285156 12.4375 C 12.320312 12.433594 12.347656 12.402344 12.347656 12.367188 C 12.34375 12.324219 12.359375 12.277344 12.386719 12.242188 C 12.417969 12.203125 12.472656 12.175781 12.519531 12.175781 C 12.523438 12.175781 12.527344 12.175781 12.53125 12.175781 C 12.707031 12.195312 12.683594 12.527344 12.679688 12.566406 C 12.660156 12.777344 12.566406 12.960938 12.421875 13.070312 C 12.398438 13.085938 12.390625 13.117188 12.398438 13.144531 C 12.410156 13.171875 12.433594 13.1875 12.460938 13.1875 L 12.933594 13.1875 L 12.933594 13.316406 C 12.933594 13.355469 12.960938 13.382812 13 13.382812 C 13.035156 13.382812 13.066406 13.355469 13.066406 13.316406 L 13.066406 13.1875 L 13.253906 13.1875 C 13.292969 13.1875 13.320312 13.160156 13.320312 13.121094 C 13.320312 13.085938 13.292969 13.058594 13.253906 13.058594 L 13.066406 13.058594 L 13.066406 12.109375 C 13.066406 12.074219 13.035156 12.042969 13 12.042969 C 12.960938 12.042969 12.933594 12.074219 12.933594 12.109375 L 12.933594 13.058594 L 12.625 13.058594 C 12.730469 12.929688 12.796875 12.757812 12.8125 12.578125 C 12.832031 12.335938 12.773438 12.070312 12.546875 12.042969 Z M 17.757812 14.453125 C 17.808594 14.453125 17.855469 14.433594 17.890625 14.398438 C 17.964844 14.324219 17.964844 14.203125 17.890625 14.128906 C 17.855469 14.09375 17.808594 14.074219 17.757812 14.074219 C 17.707031 14.074219 17.660156 14.09375 17.621094 14.128906 C 17.546875 14.203125 17.546875 14.324219 17.621094 14.398438 C 17.660156 14.433594 17.707031 14.453125 17.757812 14.453125 Z M 17.757812 13.726562 C 18.054688 13.726562 18.296875 13.964844 18.296875 14.261719 C 18.296875 14.5625 18.054688 14.800781 17.757812 14.800781 C 17.460938 14.800781 17.21875 14.5625 17.21875 14.261719 C 17.21875 13.964844 17.460938 13.726562 17.757812 13.726562 Z M 17.085938 14.261719 C 17.085938 14.632812 17.386719 14.933594 17.757812 14.933594 C 18.125 14.933594 18.429688 14.632812 18.429688 14.261719 C 18.429688 13.894531 18.125 13.59375 17.757812 13.59375 C 17.386719 13.59375 17.085938 13.894531 17.085938 14.261719 Z M 11.738281 19.476562 C 11.738281 19.234375 11.933594 19.039062 12.175781 19.039062 C 12.417969 19.039062 12.613281 19.234375 12.613281 19.476562 C 12.613281 19.714844 12.417969 19.914062 12.175781 19.914062 C 11.933594 19.914062 11.738281 19.714844 11.738281 19.476562 Z M 12.746094 19.476562 C 12.746094 19.160156 12.492188 18.90625 12.175781 18.90625 C 11.863281 18.90625 11.605469 19.160156 11.605469 19.476562 C 11.605469 19.765625 11.828125 20.007812 12.109375 20.039062 L 12.109375 20.324219 L 11.765625 20.324219 C 11.726562 20.324219 11.699219 20.355469 11.699219 20.390625 C 11.699219 20.425781 11.726562 20.457031 11.765625 20.457031 L 12.109375 20.457031 L 12.109375 20.804688 C 12.109375 20.839844 12.140625 20.867188 12.175781 20.867188 C 12.214844 20.867188 12.242188 20.839844 12.242188 20.804688 L 12.242188 20.457031 L 12.589844 20.457031 C 12.625 20.457031 12.65625 20.425781 12.65625 20.390625 C 12.65625 20.355469 12.625 20.324219 12.589844 20.324219 L 12.242188 20.324219 L 12.242188 20.039062 C 12.527344 20.007812 12.746094 19.765625 12.746094 19.476562 Z M 18.511719 20.878906 C 18.511719 20.546875 18.257812 20.269531 17.933594 20.230469 C 17.996094 20.210938 18.058594 20.203125 18.121094 20.203125 C 18.496094 20.203125 18.800781 20.507812 18.800781 20.878906 C 18.800781 21.253906 18.496094 21.554688 18.121094 21.554688 C 18.058594 21.554688 17.996094 21.546875 17.933594 21.527344 C 18.257812 21.492188 18.511719 21.210938 18.511719 20.878906 Z M 17.855469 21.402344 C 17.804688 21.402344 17.773438 21.394531 17.75 21.390625 C 17.738281 21.390625 17.726562 21.386719 17.710938 21.386719 C 17.675781 21.386719 17.648438 21.402344 17.632812 21.4375 C 17.617188 21.476562 17.628906 21.519531 17.664062 21.542969 C 17.796875 21.636719 17.957031 21.6875 18.121094 21.6875 C 18.570312 21.6875 18.933594 21.324219 18.933594 20.878906 C 18.933594 20.433594 18.570312 20.070312 18.121094 20.070312 C 17.957031 20.070312 17.796875 20.121094 17.664062 20.214844 C 17.628906 20.238281 17.617188 20.285156 17.632812 20.320312 C 17.644531 20.351562 17.679688 20.375 17.710938 20.375 C 17.71875 20.375 17.726562 20.371094 17.734375 20.371094 C 17.773438 20.359375 17.816406 20.355469 17.855469 20.355469 C 18.144531 20.355469 18.382812 20.589844 18.382812 20.878906 C 18.382812 21.167969 18.144531 21.402344 17.855469 21.402344 Z M 21.640625 13.6875 C 21.652344 13.410156 21.664062 13.132812 21.675781 12.855469 C 21.730469 11.445312 21.789062 9.988281 21.722656 8.550781 C 21.722656 8.480469 21.714844 8.410156 21.710938 8.339844 C 21.710938 8.300781 21.707031 8.265625 21.707031 8.226562 C 21.699219 8.101562 21.691406 8 21.683594 7.90625 L 21.675781 7.777344 C 21.671875 7.710938 21.664062 7.648438 21.660156 7.582031 C 21.648438 7.464844 21.632812 7.355469 21.613281 7.253906 C 21.589844 7.132812 21.5625 7.023438 21.53125 6.925781 C 21.488281 6.804688 21.4375 6.699219 21.378906 6.609375 C 21.339844 6.554688 21.300781 6.507812 21.257812 6.464844 C 21.210938 6.421875 21.15625 6.382812 21.101562 6.351562 C 21.007812 6.304688 20.902344 6.28125 20.789062 6.28125 C 20.765625 6.28125 20.742188 6.28125 20.71875 6.285156 L 20.699219 6.285156 C 20.675781 6.289062 20.652344 6.292969 20.628906 6.296875 L 20.582031 6.304688 L 20.539062 6.316406 C 20.476562 6.335938 20.417969 6.355469 20.367188 6.382812 C 20.253906 6.4375 20.152344 6.539062 20.089844 6.65625 C 20.027344 6.769531 19.996094 6.890625 19.972656 6.992188 C 19.953125 7.09375 19.933594 7.199219 19.917969 7.3125 C 19.855469 7.695312 19.816406 8.085938 19.78125 8.460938 L 19.71875 9.105469 C 19.597656 10.40625 19.457031 11.875 19.316406 13.300781 C 19.304688 13.273438 19.292969 13.246094 19.28125 13.222656 C 19.222656 13.085938 19.179688 12.953125 19.148438 12.820312 C 19.078125 12.515625 19.074219 12.203125 19.078125 11.96875 C 19.078125 11.863281 19.082031 11.753906 19.085938 11.648438 L 19.089844 11.523438 C 19.09375 11.363281 19.09375 11.203125 19.097656 11.078125 C 19.113281 9.996094 19.085938 8.835938 19.015625 7.523438 C 18.992188 7.078125 18.972656 6.617188 18.953125 6.171875 L 18.953125 6.15625 C 18.914062 5.246094 18.875 4.304688 18.78125 3.394531 C 18.738281 2.984375 18.660156 2.21875 18.078125 2.082031 C 18.035156 2.070312 17.992188 2.066406 17.945312 2.066406 C 17.734375 2.066406 17.515625 2.179688 17.367188 2.367188 C 17.210938 2.5625 17.144531 2.804688 17.089844 3.015625 C 16.8125 4.148438 16.777344 5.335938 16.746094 6.484375 L 16.746094 6.496094 C 16.742188 6.746094 16.734375 7.007812 16.722656 7.261719 C 16.695312 8.152344 16.675781 8.882812 16.664062 9.558594 C 16.65625 9.957031 16.648438 10.34375 16.644531 10.710938 L 16.640625 11.066406 C 16.636719 11.019531 16.636719 10.976562 16.632812 10.9375 C 16.628906 10.851562 16.625 10.761719 16.617188 10.675781 C 16.617188 10.640625 16.566406 9.820312 16.566406 9.820312 L 16.472656 8.328125 L 16.375 6.839844 L 15.925781 1.492188 C 15.90625 1.273438 15.875 1.035156 15.800781 0.804688 C 15.761719 0.683594 15.710938 0.574219 15.648438 0.472656 C 15.582031 0.363281 15.492188 0.269531 15.386719 0.191406 C 15.332031 0.15625 15.273438 0.125 15.214844 0.0976562 C 15.15625 0.0703125 15.09375 0.0507812 15.027344 0.0390625 C 14.980469 0.03125 14.933594 0.0234375 14.878906 0.0234375 C 14.863281 0.0234375 14.847656 0.0273438 14.828125 0.0273438 C 14.761719 0.03125 14.695312 0.046875 14.625 0.0742188 C 14.511719 0.117188 14.40625 0.195312 14.308594 0.296875 C 14.222656 0.390625 14.152344 0.496094 14.101562 0.613281 C 13.992188 0.855469 13.957031 1.109375 13.9375 1.304688 C 13.925781 1.472656 13.917969 1.640625 13.910156 1.804688 L 13.855469 2.84375 C 13.847656 3 13.839844 3.160156 13.835938 3.320312 C 13.816406 3.804688 13.8125 4.292969 13.8125 4.664062 L 13.8125 4.6875 C 13.8125 4.898438 13.8125 5.121094 13.8125 5.335938 C 13.816406 5.550781 13.824219 5.769531 13.832031 6.011719 C 13.84375 6.308594 13.859375 6.613281 13.875 6.90625 L 13.917969 6.902344 L 13.878906 6.917969 C 13.910156 7.496094 13.941406 8.097656 13.941406 8.6875 L 14.035156 10.363281 C 14.039062 10.492188 14.050781 10.605469 14.058594 10.707031 C 14.070312 10.808594 14.082031 10.921875 14.085938 11.03125 C 14.085938 11.09375 14.085938 11.140625 14.082031 11.179688 L 14.074219 11.269531 C 14.074219 11.296875 14.070312 11.320312 14.066406 11.339844 C 14.0625 11.359375 14.058594 11.378906 14.054688 11.386719 C 14.046875 11.375 14.03125 11.355469 14.011719 11.3125 C 13.992188 11.273438 13.976562 11.230469 13.964844 11.179688 C 13.953125 11.125 13.945312 11.066406 13.933594 11.003906 C 13.929688 10.957031 13.921875 10.90625 13.914062 10.859375 L 13.855469 10.53125 L 13.636719 9.207031 L 13.28125 7.058594 L 13.167969 6.34375 L 12.921875 4.757812 C 12.855469 4.335938 12.789062 3.902344 12.714844 3.476562 C 12.675781 3.246094 12.632812 3 12.578125 2.757812 C 12.527344 2.527344 12.46875 2.28125 12.367188 2.039062 C 12.3125 1.902344 12.246094 1.792969 12.171875 1.695312 C 12.089844 1.597656 11.984375 1.503906 11.859375 1.433594 C 11.710938 1.347656 11.546875 1.300781 11.375 1.300781 C 11.261719 1.300781 11.152344 1.320312 11.050781 1.363281 C 10.984375 1.390625 10.917969 1.425781 10.863281 1.46875 C 10.808594 1.511719 10.761719 1.5625 10.714844 1.628906 C 10.675781 1.683594 10.640625 1.746094 10.613281 1.816406 C 10.589844 1.882812 10.570312 1.945312 10.558594 2.011719 C 10.519531 2.226562 10.523438 2.4375 10.53125 2.644531 C 10.53125 2.683594 10.53125 2.722656 10.53125 2.761719 C 10.546875 3.289062 10.5625 3.761719 10.582031 4.214844 C 10.625 5.277344 10.691406 6.226562 10.785156 7.113281 C 10.839844 7.671875 10.914062 8.238281 10.988281 8.78125 C 11.042969 9.179688 11.101562 9.589844 11.148438 9.996094 C 11.238281 10.789062 11.332031 11.828125 11.265625 12.867188 C 11.25 13.109375 11.222656 13.351562 11.191406 13.578125 C 11.171875 13.707031 11.152344 13.824219 11.132812 13.929688 C 11.113281 14.039062 11.089844 14.167969 11.066406 14.289062 L 11.058594 14.34375 C 11.019531 14.558594 10.984375 14.78125 10.929688 14.992188 C 10.871094 15.230469 10.792969 15.449219 10.691406 15.644531 C 10.6875 15.65625 10.683594 15.667969 10.679688 15.679688 C 10.625 15.78125 10.554688 15.855469 10.480469 15.902344 C 10.425781 15.933594 10.367188 15.953125 10.308594 15.953125 C 10.269531 15.953125 10.230469 15.945312 10.195312 15.933594 C 10.101562 15.898438 10.011719 15.824219 9.9375 15.722656 C 9.867188 15.625 9.796875 15.519531 9.726562 15.390625 C 9.621094 15.203125 9.53125 15.003906 9.445312 14.8125 C 9.445312 14.8125 9.394531 14.703125 9.371094 14.652344 C 9.320312 14.542969 9.257812 14.410156 9.1875 14.277344 C 9.125 14.164062 9.058594 14.046875 8.980469 13.910156 C 8.835938 13.660156 8.679688 13.425781 8.523438 13.210938 C 8.367188 12.996094 8.191406 12.785156 7.984375 12.5625 C 7.789062 12.351562 7.578125 12.160156 7.363281 11.992188 C 7.136719 11.808594 6.894531 11.65625 6.644531 11.535156 C 6.527344 11.480469 6.398438 11.429688 6.242188 11.378906 C 6.082031 11.332031 5.945312 11.304688 5.816406 11.289062 C 5.714844 11.277344 5.625 11.269531 5.535156 11.269531 C 5.480469 11.269531 5.429688 11.273438 5.378906 11.277344 C 5.253906 11.289062 5.085938 11.3125 4.929688 11.398438 C 4.847656 11.445312 4.78125 11.503906 4.738281 11.574219 C 4.710938 11.613281 4.691406 11.65625 4.675781 11.699219 L 4.671875 11.71875 C 4.667969 11.734375 4.664062 11.746094 4.660156 11.765625 L 4.652344 11.832031 C 4.648438 11.914062 4.664062 12 4.703125 12.085938 C 4.730469 12.152344 4.769531 12.21875 4.820312 12.289062 C 4.871094 12.359375 4.925781 12.425781 4.976562 12.488281 C 5.011719 12.53125 5.046875 12.574219 5.078125 12.613281 C 5.164062 12.730469 5.25 12.855469 5.316406 12.949219 C 5.488281 13.195312 5.632812 13.417969 5.757812 13.632812 C 5.835938 13.761719 5.898438 13.878906 5.957031 13.988281 C 6.007812 14.09375 6.0625 14.207031 6.132812 14.355469 L 6.195312 14.496094 C 6.285156 14.699219 6.378906 14.910156 6.488281 15.109375 C 6.523438 15.175781 6.558594 15.238281 6.59375 15.296875 C 6.621094 15.34375 6.652344 15.390625 6.679688 15.433594 L 6.707031 15.472656 C 6.777344 15.582031 6.847656 15.699219 6.910156 15.820312 C 7.027344 16.039062 7.136719 16.28125 7.246094 16.558594 L 7.300781 16.699219 L 7.316406 16.742188 C 7.335938 16.808594 7.355469 16.875 7.371094 16.9375 L 7.484375 17.335938 C 7.632812 17.875 7.804688 18.40625 7.992188 18.917969 C 8.171875 19.417969 8.378906 19.921875 8.625 20.457031 C 8.867188 20.992188 9.113281 21.480469 9.371094 21.945312 C 9.648438 22.449219 9.933594 22.929688 10.222656 23.371094 L 10.261719 23.429688 C 10.324219 23.523438 10.390625 23.621094 10.460938 23.71875 C 10.546875 23.835938 10.636719 23.945312 10.730469 24.050781 C 10.777344 24.105469 10.828125 24.15625 10.882812 24.210938 C 10.882812 24.210938 10.882812 24.214844 10.882812 24.214844 C 11.3125 25.722656 11.414062 27.339844 11.175781 28.886719 C 11.167969 28.945312 11.207031 29 11.261719 29.007812 C 11.269531 29.007812 11.273438 29.007812 11.28125 29.007812 C 11.332031 29.007812 11.375 28.972656 11.382812 28.921875 C 11.632812 27.484375 11.59375 25.96875 11.273438 24.539062 C 11.308594 24.5625 11.34375 24.589844 11.378906 24.609375 C 11.507812 24.691406 11.636719 24.761719 11.765625 24.816406 L 11.785156 24.824219 C 11.84375 24.847656 11.90625 24.871094 11.96875 24.890625 L 12.007812 24.902344 C 12.027344 24.910156 12.050781 24.917969 12.074219 24.921875 L 12.175781 24.949219 C 12.402344 25.003906 12.644531 25.03125 12.898438 25.03125 C 12.941406 25.03125 12.988281 25.03125 13.03125 25.027344 C 13.335938 25.015625 13.621094 24.964844 13.875 24.882812 C 14.164062 24.785156 14.421875 24.652344 14.636719 24.480469 C 14.683594 24.441406 14.691406 24.375 14.65625 24.328125 C 14.636719 24.300781 14.605469 24.289062 14.570312 24.289062 C 14.546875 24.289062 14.523438 24.292969 14.511719 24.304688 L 14.507812 24.308594 L 14.503906 24.308594 C 14.304688 24.464844 14.070312 24.582031 13.804688 24.667969 C 13.570312 24.742188 13.304688 24.785156 13.023438 24.792969 C 12.996094 24.792969 12.96875 24.792969 12.941406 24.792969 C 12.691406 24.792969 12.457031 24.765625 12.234375 24.707031 L 12.136719 24.683594 C 12.117188 24.679688 12.097656 24.671875 12.078125 24.664062 L 12.042969 24.652344 C 11.988281 24.636719 11.933594 24.613281 11.878906 24.589844 L 11.863281 24.585938 C 11.75 24.535156 11.632812 24.472656 11.515625 24.398438 C 11.394531 24.320312 11.277344 24.226562 11.160156 24.121094 C 11.140625 24.101562 11.121094 24.082031 11.101562 24.0625 L 11.074219 24.039062 C 11.023438 23.988281 10.972656 23.933594 10.921875 23.878906 C 10.835938 23.78125 10.753906 23.675781 10.671875 23.566406 C 10.609375 23.476562 10.546875 23.382812 10.488281 23.292969 L 10.445312 23.226562 C 10.144531 22.75 9.859375 22.277344 9.609375 21.8125 C 9.085938 20.859375 8.628906 19.851562 8.253906 18.824219 C 8.066406 18.316406 7.894531 17.789062 7.746094 17.261719 L 7.636719 16.863281 C 7.617188 16.800781 7.597656 16.730469 7.574219 16.660156 C 7.566406 16.628906 7.550781 16.589844 7.539062 16.554688 L 7.5 16.460938 C 7.386719 16.175781 7.273438 15.925781 7.148438 15.695312 C 7.078125 15.566406 7.007812 15.445312 6.933594 15.328125 L 6.898438 15.28125 C 6.871094 15.238281 6.847656 15.199219 6.820312 15.160156 C 6.789062 15.105469 6.757812 15.046875 6.722656 14.984375 C 6.617188 14.792969 6.523438 14.589844 6.433594 14.382812 L 6.371094 14.246094 C 6.320312 14.136719 6.257812 14.003906 6.1875 13.871094 C 6.132812 13.757812 6.066406 13.640625 5.984375 13.503906 C 5.851562 13.28125 5.703125 13.050781 5.527344 12.800781 C 5.457031 12.703125 5.375 12.585938 5.28125 12.460938 C 5.242188 12.410156 5.203125 12.363281 5.167969 12.320312 C 5.117188 12.261719 5.066406 12.203125 5.023438 12.144531 C 4.941406 12.027344 4.898438 11.925781 4.902344 11.84375 L 4.90625 11.808594 C 4.90625 11.804688 4.910156 11.796875 4.910156 11.789062 L 4.917969 11.773438 C 4.921875 11.753906 4.929688 11.734375 4.945312 11.710938 C 4.96875 11.675781 5.007812 11.640625 5.054688 11.613281 C 5.140625 11.566406 5.253906 11.535156 5.398438 11.523438 C 5.445312 11.519531 5.496094 11.515625 5.546875 11.515625 C 5.621094 11.515625 5.703125 11.519531 5.789062 11.53125 C 5.902344 11.542969 6.023438 11.570312 6.171875 11.609375 C 6.3125 11.65625 6.433594 11.703125 6.539062 11.753906 C 6.773438 11.863281 7 12.007812 7.21875 12.175781 C 7.425781 12.339844 7.625 12.523438 7.816406 12.722656 C 8.15625 13.078125 8.46875 13.503906 8.773438 14.03125 L 8.78125 14.046875 C 8.78125 14.046875 8.777344 14.050781 8.777344 14.050781 C 8.683594 14.164062 8.578125 14.257812 8.46875 14.335938 C 8.34375 14.421875 8.21875 14.480469 8.09375 14.507812 C 8.046875 14.519531 8.015625 14.566406 8.023438 14.613281 C 8.03125 14.65625 8.070312 14.6875 8.113281 14.6875 C 8.121094 14.6875 8.125 14.6875 8.128906 14.6875 C 8.28125 14.660156 8.433594 14.601562 8.582031 14.511719 C 8.695312 14.445312 8.800781 14.359375 8.902344 14.261719 C 8.925781 14.304688 8.945312 14.34375 8.964844 14.378906 C 8.902344 14.445312 8.832031 14.503906 8.742188 14.5625 C 8.652344 14.628906 8.550781 14.6875 8.441406 14.738281 C 8.332031 14.789062 8.222656 14.832031 8.113281 14.867188 C 7.992188 14.902344 7.878906 14.925781 7.773438 14.933594 C 7.722656 14.9375 7.683594 14.984375 7.6875 15.035156 C 7.691406 15.085938 7.730469 15.125 7.789062 15.125 C 7.90625 15.117188 8.035156 15.097656 8.171875 15.0625 C 8.289062 15.027344 8.414062 14.984375 8.53125 14.933594 C 8.652344 14.878906 8.765625 14.820312 8.871094 14.753906 C 8.945312 14.703125 9.011719 14.652344 9.074219 14.597656 C 9.09375 14.644531 9.117188 14.695312 9.144531 14.757812 L 9.214844 14.910156 C 9.300781 15.109375 9.394531 15.316406 9.5 15.511719 C 9.574219 15.652344 9.648438 15.769531 9.730469 15.875 C 9.800781 15.976562 9.925781 16.109375 10.109375 16.179688 C 10.167969 16.203125 10.238281 16.214844 10.308594 16.214844 C 10.328125 16.214844 10.347656 16.210938 10.367188 16.210938 C 10.449219 16.203125 10.527344 16.175781 10.617188 16.125 C 10.734375 16.054688 10.832031 15.945312 10.910156 15.808594 C 10.925781 15.796875 10.9375 15.785156 10.941406 15.769531 C 11.050781 15.558594 11.136719 15.320312 11.199219 15.058594 C 11.253906 14.835938 11.292969 14.613281 11.328125 14.394531 L 11.339844 14.335938 C 11.359375 14.210938 11.382812 14.09375 11.402344 13.980469 C 11.421875 13.871094 11.441406 13.75 11.460938 13.617188 C 11.492188 13.382812 11.519531 13.132812 11.53125 12.882812 C 11.585938 12.042969 11.546875 11.144531 11.40625 9.964844 C 11.359375 9.554688 11.300781 9.144531 11.246094 8.746094 C 11.171875 8.203125 11.09375 7.640625 11.039062 7.089844 C 10.949219 6.203125 10.878906 5.257812 10.835938 4.203125 C 10.8125 3.75 10.796875 3.277344 10.785156 2.753906 L 10.78125 2.648438 C 10.773438 2.441406 10.769531 2.246094 10.804688 2.058594 C 10.816406 2.007812 10.828125 1.957031 10.847656 1.90625 C 10.867188 1.855469 10.890625 1.8125 10.917969 1.773438 C 10.949219 1.726562 10.984375 1.691406 11.015625 1.664062 C 11.054688 1.636719 11.097656 1.613281 11.144531 1.59375 C 11.214844 1.566406 11.292969 1.550781 11.371094 1.550781 C 11.5 1.550781 11.625 1.585938 11.734375 1.648438 C 11.832031 1.707031 11.914062 1.777344 11.972656 1.855469 C 12.035156 1.929688 12.089844 2.023438 12.136719 2.136719 C 12.226562 2.359375 12.285156 2.601562 12.332031 2.8125 C 12.382812 3.046875 12.425781 3.289062 12.464844 3.519531 C 12.535156 3.941406 12.601562 4.375 12.664062 4.792969 L 12.90625 6.382812 L 13.359375 9.253906 L 13.582031 10.574219 L 13.636719 10.90625 C 13.648438 10.949219 13.652344 10.996094 13.660156 11.042969 C 13.667969 11.109375 13.679688 11.175781 13.695312 11.246094 C 13.710938 11.3125 13.734375 11.375 13.761719 11.429688 C 13.792969 11.496094 13.824219 11.558594 13.894531 11.617188 C 13.921875 11.636719 13.980469 11.675781 14.0625 11.675781 C 14.117188 11.675781 14.175781 11.652344 14.222656 11.613281 C 14.261719 11.582031 14.292969 11.542969 14.3125 11.492188 C 14.328125 11.449219 14.335938 11.410156 14.339844 11.378906 C 14.34375 11.351562 14.347656 11.324219 14.347656 11.296875 L 14.359375 11.203125 C 14.363281 11.136719 14.363281 11.074219 14.359375 11.019531 C 14.355469 10.902344 14.34375 10.78125 14.332031 10.679688 C 14.324219 10.578125 14.316406 10.476562 14.308594 10.351562 L 14.214844 8.683594 C 14.210938 8.085938 14.179688 7.480469 14.144531 6.890625 C 14.128906 6.597656 14.113281 6.296875 14.101562 6 C 14.089844 5.765625 14.085938 5.546875 14.082031 5.332031 C 14.078125 5.121094 14.078125 4.902344 14.078125 4.695312 L 14.078125 4.664062 C 14.078125 4.296875 14.082031 3.8125 14.097656 3.328125 C 14.105469 3.175781 14.113281 3.019531 14.121094 2.871094 L 14.171875 1.820312 C 14.179688 1.65625 14.1875 1.488281 14.199219 1.328125 C 14.222656 1.066406 14.265625 0.878906 14.339844 0.71875 C 14.378906 0.628906 14.433594 0.546875 14.5 0.476562 C 14.570312 0.398438 14.644531 0.34375 14.722656 0.3125 C 14.765625 0.296875 14.804688 0.289062 14.84375 0.285156 C 14.855469 0.285156 14.867188 0.285156 14.878906 0.285156 C 14.914062 0.285156 14.949219 0.289062 14.980469 0.292969 C 15.023438 0.304688 15.070312 0.316406 15.113281 0.335938 C 15.152344 0.355469 15.195312 0.378906 15.234375 0.40625 C 15.3125 0.460938 15.378906 0.53125 15.425781 0.609375 C 15.476562 0.691406 15.519531 0.785156 15.550781 0.886719 C 15.617188 1.09375 15.644531 1.320312 15.664062 1.515625 L 15.882812 4.1875 L 16.09375 6.859375 L 16.195312 8.347656 L 16.300781 9.835938 C 16.300781 9.835938 16.363281 10.65625 16.367188 10.691406 C 16.371094 10.777344 16.378906 10.867188 16.382812 10.953125 C 16.390625 11.066406 16.402344 11.199219 16.425781 11.335938 C 16.453125 11.480469 16.488281 11.605469 16.535156 11.722656 C 16.566406 11.785156 16.597656 11.847656 16.636719 11.90625 C 16.644531 11.921875 16.65625 11.9375 16.667969 11.949219 C 16.699219 11.992188 16.730469 12.03125 16.761719 12.0625 C 16.839844 12.152344 16.941406 12.238281 17.066406 12.320312 C 17.160156 12.386719 17.269531 12.445312 17.40625 12.503906 C 17.417969 12.511719 17.429688 12.515625 17.445312 12.515625 C 17.476562 12.515625 17.507812 12.496094 17.523438 12.46875 C 17.535156 12.445312 17.539062 12.421875 17.53125 12.398438 C 17.523438 12.375 17.507812 12.355469 17.488281 12.34375 C 17.238281 12.203125 17.0625 12.066406 16.929688 11.914062 C 16.90625 11.882812 16.878906 11.847656 16.855469 11.808594 C 16.851562 11.671875 16.855469 11.53125 16.855469 11.410156 L 16.875 10.714844 C 16.882812 10.351562 16.894531 9.964844 16.910156 9.566406 C 16.933594 8.886719 16.964844 8.160156 17.003906 7.269531 C 17.015625 7.015625 17.019531 6.753906 17.027344 6.503906 L 17.027344 6.492188 C 17.058594 5.359375 17.089844 4.183594 17.363281 3.085938 C 17.410156 2.890625 17.46875 2.691406 17.585938 2.542969 C 17.660156 2.449219 17.796875 2.34375 17.945312 2.34375 C 17.96875 2.34375 17.992188 2.347656 18.015625 2.351562 C 18.402344 2.445312 18.464844 3.054688 18.503906 3.421875 C 18.59375 4.328125 18.632812 5.265625 18.671875 6.171875 C 18.691406 6.597656 18.710938 7.078125 18.734375 7.539062 C 18.8125 8.84375 18.847656 10.003906 18.839844 11.078125 C 18.839844 11.199219 18.835938 11.359375 18.832031 11.519531 L 18.832031 11.636719 C 18.828125 11.742188 18.828125 11.855469 18.824219 11.964844 C 18.824219 12.214844 18.832031 12.546875 18.910156 12.875 C 18.945312 13.019531 18.996094 13.167969 19.058594 13.316406 C 19.125 13.472656 19.195312 13.609375 19.265625 13.726562 L 19.277344 13.742188 C 19.285156 13.769531 19.292969 13.789062 19.308594 13.804688 C 19.316406 13.816406 19.324219 13.824219 19.335938 13.832031 C 19.40625 13.933594 19.480469 14.019531 19.558594 14.097656 C 19.679688 14.214844 19.816406 14.308594 19.957031 14.371094 C 19.972656 14.378906 19.988281 14.378906 20.003906 14.378906 C 20.050781 14.378906 20.09375 14.355469 20.113281 14.3125 C 20.125 14.285156 20.125 14.25 20.113281 14.222656 C 20.105469 14.191406 20.082031 14.171875 20.054688 14.15625 C 19.9375 14.105469 19.828125 14.027344 19.726562 13.929688 C 19.667969 13.867188 19.609375 13.800781 19.554688 13.726562 C 19.691406 12.195312 19.832031 10.65625 19.96875 9.164062 L 20.035156 8.484375 C 20.066406 8.113281 20.101562 7.726562 20.160156 7.351562 C 20.179688 7.246094 20.199219 7.140625 20.21875 7.042969 C 20.242188 6.925781 20.269531 6.839844 20.304688 6.773438 C 20.347656 6.695312 20.40625 6.640625 20.480469 6.601562 C 20.550781 6.566406 20.644531 6.539062 20.742188 6.527344 C 20.757812 6.523438 20.773438 6.523438 20.792969 6.523438 C 20.863281 6.523438 20.929688 6.539062 20.988281 6.570312 C 21.054688 6.605469 21.117188 6.664062 21.171875 6.746094 C 21.289062 6.921875 21.339844 7.144531 21.371094 7.300781 C 21.386719 7.394531 21.402344 7.492188 21.414062 7.605469 C 21.417969 7.671875 21.421875 7.742188 21.429688 7.808594 L 21.4375 7.921875 C 21.445312 8.015625 21.449219 8.113281 21.457031 8.242188 L 21.464844 8.355469 C 21.46875 8.421875 21.472656 8.492188 21.472656 8.558594 C 21.535156 9.988281 21.476562 11.441406 21.417969 12.847656 C 21.40625 13.125 21.394531 13.398438 21.382812 13.675781 L 21.359375 14.320312 C 21.355469 14.511719 21.355469 14.71875 21.367188 14.96875 C 21.371094 15.109375 21.378906 15.253906 21.386719 15.390625 L 21.386719 15.410156 C 21.398438 15.683594 21.414062 15.96875 21.414062 16.246094 C 21.414062 17.003906 21.324219 17.828125 21.140625 18.765625 L 21.140625 18.773438 C 21.070312 19.136719 20.984375 19.523438 20.878906 19.957031 C 20.777344 20.378906 20.667969 20.761719 20.550781 21.128906 C 20.273438 21.980469 19.949219 22.703125 19.558594 23.335938 C 19.339844 23.691406 19.097656 24.015625 18.84375 24.296875 C 18.800781 24.34375 18.761719 24.382812 18.726562 24.417969 C 18.703125 24.441406 18.679688 24.464844 18.652344 24.488281 C 18.632812 24.503906 18.613281 24.523438 18.589844 24.542969 C 18.53125 24.597656 18.464844 24.648438 18.402344 24.695312 C 18.230469 24.820312 18.0625 24.921875 17.898438 24.988281 C 17.726562 25.058594 17.539062 25.097656 17.34375 25.097656 L 17.3125 25.097656 C 17.144531 25.097656 16.964844 25.078125 16.761719 25.03125 C 16.351562 24.941406 15.957031 24.773438 15.628906 24.621094 C 15.613281 24.617188 15.597656 24.613281 15.582031 24.613281 C 15.539062 24.613281 15.503906 24.636719 15.484375 24.675781 C 15.472656 24.703125 15.472656 24.730469 15.480469 24.757812 C 15.492188 24.785156 15.511719 24.808594 15.539062 24.820312 C 15.875 24.980469 16.28125 25.152344 16.710938 25.25 C 16.933594 25.304688 17.136719 25.328125 17.324219 25.328125 L 17.34375 25.328125 C 17.566406 25.328125 17.789062 25.285156 17.988281 25.203125 C 18.117188 25.148438 18.246094 25.082031 18.371094 25 C 18.316406 25.171875 18.269531 25.351562 18.238281 25.5625 C 18.179688 25.949219 18.164062 26.328125 18.15625 26.683594 C 18.148438 27.070312 18.167969 27.449219 18.210938 27.804688 C 18.253906 28.15625 18.324219 28.527344 18.421875 28.902344 C 18.433594 28.949219 18.472656 28.980469 18.515625 28.980469 C 18.523438 28.980469 18.53125 28.976562 18.539062 28.976562 C 18.59375 28.960938 18.625 28.910156 18.613281 28.855469 C 18.527344 28.484375 18.464844 28.125 18.433594 27.78125 C 18.398438 27.429688 18.390625 27.066406 18.40625 26.691406 C 18.421875 26.34375 18.445312 25.972656 18.511719 25.609375 C 18.542969 25.417969 18.589844 25.25 18.644531 25.097656 C 18.710938 24.914062 18.777344 24.792969 18.824219 24.707031 C 18.839844 24.671875 18.859375 24.640625 18.871094 24.613281 L 18.890625 24.589844 C 18.933594 24.550781 18.976562 24.507812 19.019531 24.460938 C 19.292969 24.164062 19.539062 23.835938 19.769531 23.464844 C 20.175781 22.820312 20.511719 22.082031 20.800781 21.210938 C 20.925781 20.835938 21.039062 20.445312 21.144531 20.023438 C 21.25 19.59375 21.339844 19.207031 21.410156 18.839844 L 21.417969 18.835938 L 21.417969 18.816406 C 21.601562 17.863281 21.6875 17.019531 21.679688 16.246094 C 21.679688 15.972656 21.664062 15.699219 21.648438 15.429688 C 21.640625 15.277344 21.632812 15.117188 21.628906 14.960938 C 21.617188 14.714844 21.617188 14.511719 21.621094 14.328125 Z M 13.050781 26.230469 C 13.011719 25.96875 12.957031 25.71875 12.890625 25.480469 C 12.878906 25.445312 12.84375 25.417969 12.804688 25.417969 C 12.796875 25.417969 12.792969 25.417969 12.789062 25.417969 C 12.765625 25.421875 12.742188 25.4375 12.730469 25.457031 C 12.71875 25.476562 12.710938 25.5 12.714844 25.523438 C 12.765625 25.792969 12.804688 26.03125 12.832031 26.261719 C 12.867188 26.5625 12.882812 26.792969 12.890625 27.003906 C 12.898438 27.253906 12.898438 27.503906 12.886719 27.75 L 12.875 27.9375 L 12.859375 28.121094 L 12.839844 28.308594 C 12.832031 28.371094 12.828125 28.433594 12.820312 28.496094 C 12.816406 28.542969 12.847656 28.585938 12.890625 28.597656 C 12.898438 28.597656 12.90625 28.597656 12.910156 28.597656 C 12.957031 28.597656 12.992188 28.566406 13.003906 28.527344 C 13.015625 28.464844 13.027344 28.402344 13.039062 28.335938 L 13.070312 28.144531 L 13.09375 27.957031 L 13.113281 27.765625 C 13.132812 27.511719 13.136719 27.253906 13.125 26.996094 C 13.109375 26.703125 13.085938 26.460938 13.050781 26.230469 Z M 14.863281 18.308594 C 14.714844 17.949219 14.53125 17.609375 14.316406 17.292969 C 14.101562 16.972656 13.855469 16.671875 13.585938 16.402344 C 13.308594 16.125 13.011719 15.878906 12.703125 15.667969 C 12.6875 15.65625 12.667969 15.652344 12.648438 15.652344 C 12.617188 15.652344 12.585938 15.667969 12.566406 15.691406 C 12.535156 15.734375 12.542969 15.796875 12.589844 15.832031 C 12.890625 16.054688 13.171875 16.300781 13.421875 16.5625 C 13.675781 16.828125 13.90625 17.117188 14.109375 17.429688 C 14.515625 18.042969 14.804688 18.746094 14.941406 19.460938 C 15.015625 19.824219 15.046875 20.191406 15.042969 20.554688 C 15.039062 20.921875 15 21.292969 14.921875 21.652344 C 14.773438 22.359375 14.488281 23.042969 14.066406 23.683594 C 14.039062 23.730469 14.050781 23.789062 14.09375 23.820312 C 14.113281 23.832031 14.132812 23.839844 14.152344 23.839844 C 14.183594 23.839844 14.214844 23.824219 14.234375 23.796875 C 14.679688 23.15625 15 22.433594 15.160156 21.703125 C 15.328125 20.964844 15.339844 20.171875 15.195312 19.410156 C 15.125 19.039062 15.015625 18.667969 14.863281 18.308594 Z M 14.152344 12.609375 C 14.144531 12.609375 14.136719 12.609375 14.128906 12.613281 C 14.101562 12.617188 14.078125 12.632812 14.0625 12.65625 C 14.050781 12.679688 14.042969 12.707031 14.050781 12.734375 C 14.128906 13.105469 14.257812 13.46875 14.429688 13.816406 C 14.59375 14.144531 14.804688 14.46875 15.050781 14.777344 C 15.503906 15.335938 16.078125 15.839844 16.761719 16.273438 C 17.398438 16.675781 18.089844 17.003906 18.8125 17.242188 C 19.179688 17.363281 19.546875 17.460938 19.90625 17.539062 C 20.285156 17.613281 20.664062 17.667969 21.03125 17.695312 L 21.039062 17.695312 C 21.089844 17.695312 21.132812 17.65625 21.136719 17.605469 C 21.140625 17.578125 21.132812 17.554688 21.113281 17.535156 C 21.097656 17.511719 21.074219 17.5 21.046875 17.5 C 20.691406 17.460938 20.324219 17.402344 19.957031 17.316406 C 19.59375 17.234375 19.234375 17.132812 18.890625 17.011719 C 18.164062 16.761719 17.492188 16.4375 16.898438 16.058594 C 16.238281 15.632812 15.679688 15.148438 15.246094 14.617188 C 15.003906 14.328125 14.800781 14.023438 14.640625 13.707031 C 14.464844 13.378906 14.335938 13.035156 14.253906 12.6875 C 14.242188 12.640625 14.199219 12.609375 14.152344 12.609375 Z M 13.460938 15.050781 L 13.058594 14.875 L 12.644531 14.71875 L 12.226562 14.585938 C 12.21875 14.582031 12.207031 14.582031 12.195312 14.582031 C 12.148438 14.582031 12.109375 14.609375 12.09375 14.652344 C 12.074219 14.710938 12.101562 14.773438 12.160156 14.792969 L 12.566406 14.933594 L 12.964844 15.089844 L 13.359375 15.265625 L 13.742188 15.460938 C 14.230469 15.722656 14.710938 16.042969 15.167969 16.410156 C 15.613281 16.765625 16.027344 17.164062 16.398438 17.59375 L 16.667969 17.925781 L 16.921875 18.269531 L 17.160156 18.625 L 17.386719 19 C 17.40625 19.035156 17.445312 19.054688 17.488281 19.054688 C 17.507812 19.054688 17.527344 19.050781 17.546875 19.039062 C 17.574219 19.023438 17.59375 19 17.601562 18.96875 C 17.609375 18.9375 17.605469 18.90625 17.589844 18.878906 L 17.367188 18.496094 L 17.128906 18.128906 L 16.867188 17.773438 L 16.589844 17.433594 C 16.210938 16.988281 15.789062 16.574219 15.328125 16.207031 C 14.878906 15.847656 14.386719 15.523438 13.855469 15.246094 Z M 21.574219 25.203125 C 21.574219 25.0625 21.457031 24.945312 21.316406 24.945312 C 21.175781 24.945312 21.0625 25.0625 21.0625 25.203125 C 21.0625 25.34375 21.175781 25.457031 21.316406 25.457031 C 21.457031 25.457031 21.574219 25.34375 21.574219 25.203125 Z M 3.929688 18.675781 C 3.785156 18.675781 3.664062 18.789062 3.652344 18.933594 C 3.636719 19.085938 3.75 19.222656 3.90625 19.234375 C 3.914062 19.234375 3.921875 19.238281 3.929688 19.238281 C 3.996094 19.238281 4.058594 19.214844 4.109375 19.171875 C 4.167969 19.125 4.203125 19.054688 4.210938 18.980469 C 4.214844 18.90625 4.191406 18.835938 4.144531 18.777344 C 4.097656 18.71875 4.027344 18.683594 3.953125 18.679688 C 3.945312 18.679688 3.9375 18.675781 3.929688 18.675781 Z M 3.929688 19.398438 C 3.917969 19.398438 3.90625 19.398438 3.890625 19.398438 C 3.648438 19.375 3.46875 19.160156 3.488281 18.917969 C 3.507812 18.691406 3.703125 18.515625 3.929688 18.515625 C 3.941406 18.515625 3.957031 18.515625 3.96875 18.515625 C 4.085938 18.527344 4.191406 18.582031 4.269531 18.671875 C 4.34375 18.761719 4.382812 18.878906 4.371094 18.996094 C 4.359375 19.113281 4.304688 19.21875 4.214844 19.296875 C 4.136719 19.363281 4.035156 19.398438 3.929688 19.398438 Z M 7.167969 5.578125 C 7.101562 5.578125 7.042969 5.597656 6.992188 5.640625 C 6.933594 5.691406 6.898438 5.757812 6.890625 5.832031 C 6.878906 5.984375 6.992188 6.121094 7.144531 6.136719 C 7.152344 6.136719 7.164062 6.136719 7.171875 6.136719 C 7.316406 6.136719 7.4375 6.027344 7.449219 5.878906 C 7.457031 5.804688 7.433594 5.734375 7.386719 5.675781 C 7.335938 5.621094 7.269531 5.585938 7.195312 5.578125 C 7.1875 5.578125 7.179688 5.578125 7.167969 5.578125 Z M 7.171875 6.296875 C 7.15625 6.296875 7.144531 6.296875 7.132812 6.296875 C 7.015625 6.285156 6.90625 6.230469 6.832031 6.140625 C 6.753906 6.050781 6.71875 5.933594 6.730469 5.816406 C 6.738281 5.699219 6.792969 5.59375 6.886719 5.515625 C 6.964844 5.449219 7.066406 5.414062 7.167969 5.414062 C 7.183594 5.414062 7.195312 5.414062 7.210938 5.414062 C 7.328125 5.425781 7.433594 5.480469 7.511719 5.570312 C 7.585938 5.664062 7.621094 5.777344 7.613281 5.894531 C 7.59375 6.121094 7.398438 6.296875 7.171875 6.296875 Z M 26.558594 18.234375 C 26.414062 18.234375 26.292969 18.347656 26.28125 18.488281 C 26.273438 18.5625 26.296875 18.636719 26.34375 18.695312 C 26.390625 18.75 26.460938 18.785156 26.535156 18.792969 C 26.542969 18.792969 26.550781 18.792969 26.558594 18.792969 C 26.625 18.792969 26.6875 18.769531 26.738281 18.726562 C 26.796875 18.679688 26.832031 18.613281 26.839844 18.539062 C 26.851562 18.382812 26.738281 18.25 26.582031 18.234375 C 26.574219 18.234375 26.566406 18.234375 26.558594 18.234375 Z M 26.558594 18.957031 C 26.546875 18.957031 26.535156 18.957031 26.519531 18.953125 C 26.277344 18.933594 26.097656 18.71875 26.117188 18.476562 C 26.136719 18.25 26.332031 18.070312 26.558594 18.070312 C 26.570312 18.070312 26.585938 18.070312 26.597656 18.074219 C 26.714844 18.082031 26.824219 18.140625 26.898438 18.230469 C 26.972656 18.320312 27.011719 18.433594 27 18.550781 C 26.988281 18.667969 26.933594 18.777344 26.84375 18.851562 C 26.765625 18.917969 26.664062 18.957031 26.558594 18.957031 Z M 2.597656 11.953125 C 2.539062 11.953125 2.492188 11.972656 2.460938 12.011719 C 2.429688 12.046875 2.414062 12.09375 2.414062 12.140625 C 2.414062 12.234375 2.476562 12.328125 2.597656 12.328125 C 2.652344 12.328125 2.699219 12.308594 2.734375 12.269531 C 2.761719 12.234375 2.777344 12.1875 2.777344 12.140625 C 2.777344 12.046875 2.71875 11.953125 2.597656 11.953125 Z M 2.589844 13.128906 C 2.5625 13.128906 2.542969 13.105469 2.539062 13.074219 C 2.527344 12.960938 2.457031 12.503906 2.378906 12.398438 C 2.332031 12.332031 2.117188 12.246094 1.992188 12.207031 C 1.96875 12.203125 1.953125 12.175781 1.953125 12.148438 C 1.953125 12.121094 1.96875 12.09375 1.992188 12.089844 C 2.097656 12.054688 2.328125 11.964844 2.378906 11.894531 C 2.460938 11.785156 2.527344 11.308594 2.539062 11.21875 C 2.542969 11.183594 2.566406 11.167969 2.589844 11.167969 C 2.617188 11.167969 2.636719 11.191406 2.640625 11.21875 C 2.6875 11.5625 2.75 11.824219 2.800781 11.894531 C 2.851562 11.964844 3.082031 12.054688 3.1875 12.085938 C 3.210938 12.09375 3.226562 12.121094 3.226562 12.148438 C 3.226562 12.175781 3.210938 12.203125 3.183594 12.207031 C 3.0625 12.246094 2.847656 12.332031 2.800781 12.398438 C 2.75 12.46875 2.6875 12.730469 2.640625 13.070312 L 2.640625 13.078125 C 2.636719 13.105469 2.617188 13.128906 2.589844 13.128906 Z M 23.566406 20.921875 C 23.511719 20.921875 23.464844 20.945312 23.429688 20.984375 C 23.398438 21.015625 23.382812 21.0625 23.382812 21.113281 C 23.382812 21.203125 23.445312 21.300781 23.566406 21.300781 C 23.621094 21.300781 23.667969 21.277344 23.703125 21.238281 C 23.734375 21.203125 23.75 21.160156 23.75 21.109375 C 23.75 21.015625 23.6875 20.921875 23.566406 20.921875 Z M 23.558594 22.097656 C 23.535156 22.097656 23.511719 22.074219 23.507812 22.046875 C 23.5 21.960938 23.429688 21.480469 23.347656 21.367188 C 23.300781 21.304688 23.09375 21.21875 22.960938 21.179688 C 22.9375 21.167969 22.921875 21.144531 22.921875 21.117188 C 22.921875 21.089844 22.9375 21.066406 22.960938 21.058594 C 23.066406 21.027344 23.296875 20.9375 23.347656 20.867188 C 23.429688 20.757812 23.496094 20.28125 23.507812 20.191406 C 23.511719 20.15625 23.535156 20.136719 23.558594 20.136719 C 23.585938 20.136719 23.605469 20.160156 23.609375 20.191406 C 23.65625 20.53125 23.71875 20.796875 23.769531 20.867188 C 23.816406 20.929688 24.023438 21.015625 24.15625 21.058594 C 24.179688 21.066406 24.195312 21.089844 24.195312 21.117188 C 24.195312 21.144531 24.179688 21.171875 24.15625 21.179688 C 24.023438 21.21875 23.816406 21.304688 23.769531 21.367188 C 23.71875 21.441406 23.65625 21.703125 23.613281 22.042969 C 23.605469 22.078125 23.585938 22.097656 23.558594 22.097656 Z M 8.925781 10.4375 C 8.925781 10.296875 8.8125 10.183594 8.671875 10.183594 C 8.527344 10.183594 8.414062 10.296875 8.414062 10.4375 C 8.414062 10.578125 8.527344 10.695312 8.671875 10.695312 C 8.8125 10.695312 8.925781 10.578125 8.925781 10.4375 Z M 13.292969 0.769531 C 13.292969 0.625 13.175781 0.511719 13.035156 0.511719 C 12.894531 0.511719 12.777344 0.625 12.777344 0.769531 C 12.777344 0.910156 12.894531 1.023438 13.035156 1.023438 C 13.175781 1.023438 13.292969 0.910156 13.292969 0.769531 Z M 6.890625 20.203125 C 6.890625 20.0625 6.777344 19.945312 6.632812 19.945312 C 6.492188 19.945312 6.378906 20.0625 6.378906 20.203125 C 6.378906 20.34375 6.492188 20.457031 6.632812 20.457031 C 6.777344 20.457031 6.890625 20.34375 6.890625 20.203125 Z M 28.085938 13.460938 C 28.085938 13.320312 27.972656 13.203125 27.828125 13.203125 C 27.6875 13.203125 27.574219 13.320312 27.574219 13.460938 C 27.574219 13.601562 27.6875 13.714844 27.828125 13.714844 C 27.972656 13.714844 28.085938 13.601562 28.085938 13.460938 Z M 25.675781 8.421875 C 25.675781 8.28125 25.5625 8.167969 25.417969 8.167969 C 25.277344 8.167969 25.164062 8.28125 25.164062 8.421875 C 25.164062 8.566406 25.277344 8.679688 25.417969 8.679688 C 25.5625 8.679688 25.675781 8.566406 25.675781 8.421875 Z M 7.203125 24.269531 C 7.332031 24.324219 7.425781 24.382812 7.46875 24.4375 C 7.523438 24.503906 7.566406 24.640625 7.597656 24.761719 C 7.628906 24.640625 7.671875 24.503906 7.726562 24.4375 C 7.769531 24.382812 7.863281 24.324219 7.996094 24.269531 C 7.859375 24.214844 7.769531 24.160156 7.726562 24.105469 C 7.675781 24.039062 7.628906 23.898438 7.597656 23.777344 C 7.566406 23.898438 7.523438 24.039062 7.46875 24.105469 C 7.425781 24.160156 7.335938 24.214844 7.203125 24.269531 Z M 7.597656 25.355469 C 7.550781 25.355469 7.511719 25.316406 7.507812 25.269531 C 7.476562 25.042969 7.402344 24.652344 7.328125 24.558594 C 7.28125 24.5 7.066406 24.414062 6.890625 24.363281 C 6.851562 24.351562 6.824219 24.3125 6.824219 24.269531 C 6.824219 24.226562 6.851562 24.191406 6.890625 24.179688 C 7.066406 24.128906 7.28125 24.039062 7.328125 23.984375 C 7.40625 23.886719 7.480469 23.460938 7.507812 23.269531 C 7.511719 23.222656 7.554688 23.1875 7.597656 23.1875 C 7.644531 23.1875 7.683594 23.222656 7.691406 23.269531 C 7.71875 23.496094 7.796875 23.890625 7.871094 23.984375 C 7.921875 24.046875 8.15625 24.132812 8.308594 24.179688 C 8.347656 24.1875 8.375 24.226562 8.375 24.269531 C 8.375 24.3125 8.347656 24.351562 8.308594 24.363281 C 8.132812 24.414062 7.914062 24.5 7.871094 24.558594 C 7.796875 24.652344 7.71875 25.042969 7.691406 25.269531 C 7.683594 25.316406 7.644531 25.355469 7.597656 25.355469 Z M 23.558594 14.03125 C 23.691406 14.085938 23.785156 14.144531 23.824219 14.195312 C 23.871094 14.253906 23.914062 14.363281 23.957031 14.523438 C 23.988281 14.402344 24.03125 14.265625 24.085938 14.195312 C 24.136719 14.132812 24.253906 14.074219 24.351562 14.03125 C 24.21875 13.972656 24.128906 13.917969 24.085938 13.863281 C 24.03125 13.796875 23.988281 13.660156 23.957031 13.539062 C 23.925781 13.660156 23.878906 13.796875 23.824219 13.867188 C 23.785156 13.917969 23.695312 13.976562 23.558594 14.03125 Z M 23.957031 15.113281 C 23.910156 15.113281 23.871094 15.078125 23.863281 15.03125 C 23.835938 14.804688 23.757812 14.410156 23.683594 14.316406 C 23.640625 14.261719 23.421875 14.171875 23.246094 14.121094 C 23.207031 14.109375 23.179688 14.074219 23.179688 14.03125 C 23.179688 13.988281 23.207031 13.949219 23.246094 13.9375 C 23.398438 13.894531 23.632812 13.804688 23.683594 13.742188 C 23.757812 13.652344 23.835938 13.257812 23.863281 13.03125 C 23.871094 12.984375 23.910156 12.949219 23.957031 12.949219 C 24 12.949219 24.039062 12.984375 24.046875 13.03125 C 24.078125 13.257812 24.152344 13.652344 24.230469 13.742188 C 24.277344 13.804688 24.511719 13.894531 24.664062 13.9375 C 24.703125 13.949219 24.730469 13.988281 24.730469 14.03125 C 24.730469 14.074219 24.703125 14.109375 24.664062 14.121094 C 24.488281 14.171875 24.273438 14.261719 24.230469 14.316406 C 24.152344 14.410156 24.078125 14.804688 24.046875 15.03125 C 24.039062 15.078125 24 15.113281 23.957031 15.113281 Z M 22.132812 3.246094 C 22.265625 3.300781 22.355469 3.359375 22.398438 3.410156 C 22.453125 3.480469 22.496094 3.617188 22.527344 3.738281 C 22.558594 3.617188 22.605469 3.480469 22.660156 3.410156 C 22.710938 3.347656 22.824219 3.289062 22.925781 3.246094 C 22.789062 3.191406 22.699219 3.132812 22.65625 3.082031 C 22.605469 3.011719 22.558594 2.875 22.527344 2.753906 C 22.488281 2.914062 22.445312 3.023438 22.398438 3.082031 C 22.355469 3.132812 22.265625 3.191406 22.132812 3.246094 Z M 22.527344 4.328125 C 22.480469 4.328125 22.441406 4.292969 22.4375 4.246094 C 22.40625 4.019531 22.332031 3.625 22.253906 3.535156 C 22.210938 3.476562 21.996094 3.386719 21.820312 3.339844 C 21.78125 3.328125 21.753906 3.289062 21.753906 3.246094 C 21.753906 3.203125 21.78125 3.164062 21.820312 3.15625 C 21.972656 3.109375 22.207031 3.019531 22.253906 2.960938 C 22.332031 2.867188 22.40625 2.472656 22.4375 2.246094 C 22.441406 2.199219 22.480469 2.164062 22.527344 2.164062 C 22.574219 2.164062 22.613281 2.199219 22.621094 2.246094 C 22.648438 2.472656 22.726562 2.867188 22.800781 2.960938 C 22.851562 3.019531 23.085938 3.109375 23.238281 3.15625 C 23.277344 3.164062 23.304688 3.203125 23.304688 3.246094 C 23.304688 3.289062 23.277344 3.328125 23.238281 3.339844 C 23.0625 3.386719 22.84375 3.476562 22.800781 3.535156 C 22.726562 3.625 22.648438 4.019531 22.621094 4.246094 C 22.613281 4.292969 22.574219 4.328125 22.527344 4.328125 " fill-opacity="1" fill-rule="nonzero"/></g></svg>