<svg xmlns="http://www.w3.org/2000/svg" xmlns:xlink="http://www.w3.org/1999/xlink" width="40" zoomAndPan="magnify" viewBox="0 0 30 30.000001" height="40" preserveAspectRatio="xMidYMid meet" version="1.0"><defs><clipPath id="f22e31842c"><path d="M 3.386719 21 L 26.613281 21 L 26.613281 22.039062 L 3.386719 22.039062 Z M 3.386719 21 " clip-rule="nonzero"/></clipPath><clipPath id="c2a238d24f"><path d="M 3.386719 20 L 26.613281 20 L 26.613281 22 L 3.386719 22 Z M 3.386719 20 " clip-rule="nonzero"/></clipPath><clipPath id="111d7fb6d1"><path d="M 3.386719 19 L 26.613281 19 L 26.613281 21 L 3.386719 21 Z M 3.386719 19 " clip-rule="nonzero"/></clipPath><clipPath id="43b5c745f1"><path d="M 3.386719 18 L 26.613281 18 L 26.613281 20 L 3.386719 20 Z M 3.386719 18 " clip-rule="nonzero"/></clipPath><clipPath id="c981dc5831"><path d="M 3.386719 17 L 26.613281 17 L 26.613281 19 L 3.386719 19 Z M 3.386719 17 " clip-rule="nonzero"/></clipPath><clipPath id="b961fae3df"><path d="M 3.386719 16 L 26.613281 16 L 26.613281 18 L 3.386719 18 Z M 3.386719 16 " clip-rule="nonzero"/></clipPath><clipPath id="b94083ecff"><path d="M 3.386719 15 L 26.613281 15 L 26.613281 17 L 3.386719 17 Z M 3.386719 15 " clip-rule="nonzero"/></clipPath><clipPath id="7fa47681fc"><path d="M 3.386719 13 L 26.613281 13 L 26.613281 15 L 3.386719 15 Z M 3.386719 13 " clip-rule="nonzero"/></clipPath><clipPath id="5123172023"><path d="M 3.386719 12 L 26.613281 12 L 26.613281 14 L 3.386719 14 Z M 3.386719 12 " clip-rule="nonzero"/></clipPath><clipPath id="e72b98bb89"><path d="M 3.386719 11 L 26.613281 11 L 26.613281 13 L 3.386719 13 Z M 3.386719 11 " clip-rule="nonzero"/></clipPath><clipPath id="595838d47c"><path d="M 3.386719 10 L 26.613281 10 L 26.613281 12 L 3.386719 12 Z M 3.386719 10 " clip-rule="nonzero"/></clipPath><clipPath id="71881f07cd"><path d="M 3.386719 9 L 26.613281 9 L 26.613281 11 L 3.386719 11 Z M 3.386719 9 " clip-rule="nonzero"/></clipPath><clipPath id="7ba261c798"><path d="M 3.386719 8.976562 L 26.613281 8.976562 L 26.613281 10 L 3.386719 10 Z M 3.386719 8.976562 " clip-rule="nonzero"/></clipPath><clipPath id="c5b52cc1ca"><path d="M 3.386719 8.976562 L 15 8.976562 L 15 17 L 3.386719 17 Z M 3.386719 8.976562 " clip-rule="nonzero"/></clipPath></defs><g clip-path="url(#f22e31842c)"><path fill="#cb001c" d="M 3.550781 21.023438 L 26.46875 21.023438 L 26.46875 22.027344 L 3.550781 22.027344 Z M 3.550781 21.023438 " fill-opacity="1" fill-rule="nonzero"/></g><g clip-path="url(#c2a238d24f)"><path fill="#ffffff" d="M 3.550781 20.019531 L 26.46875 20.019531 L 26.46875 21.023438 L 3.550781 21.023438 Z M 3.550781 20.019531 " fill-opacity="1" fill-rule="nonzero"/></g><g clip-path="url(#111d7fb6d1)"><path fill="#cb001c" d="M 3.550781 19.015625 L 26.46875 19.015625 L 26.46875 20.019531 L 3.550781 20.019531 Z M 3.550781 19.015625 " fill-opacity="1" fill-rule="nonzero"/></g><g clip-path="url(#43b5c745f1)"><path fill="#ffffff" d="M 3.550781 18.011719 L 26.46875 18.011719 L 26.46875 19.015625 L 3.550781 19.015625 Z M 3.550781 18.011719 " fill-opacity="1" fill-rule="nonzero"/></g><g clip-path="url(#c981dc5831)"><path fill="#cb001c" d="M 3.550781 17.007812 L 26.46875 17.007812 L 26.46875 18.011719 L 3.550781 18.011719 Z M 3.550781 17.007812 " fill-opacity="1" fill-rule="nonzero"/></g><g clip-path="url(#b961fae3df)"><path fill="#ffffff" d="M 3.550781 16.003906 L 26.46875 16.003906 L 26.46875 17.007812 L 3.550781 17.007812 Z M 3.550781 16.003906 " fill-opacity="1" fill-rule="nonzero"/></g><g clip-path="url(#b94083ecff)"><path fill="#cb001c" d="M 3.550781 15 L 26.46875 15 L 26.46875 16.003906 L 3.550781 16.003906 Z M 3.550781 15 " fill-opacity="1" fill-rule="nonzero"/></g><g clip-path="url(#7fa47681fc)"><path fill="#ffffff" d="M 3.550781 13.996094 L 26.46875 13.996094 L 26.46875 15 L 3.550781 15 Z M 3.550781 13.996094 " fill-opacity="1" fill-rule="nonzero"/></g><g clip-path="url(#5123172023)"><path fill="#cb001c" d="M 3.550781 12.992188 L 26.46875 12.992188 L 26.46875 13.996094 L 3.550781 13.996094 Z M 3.550781 12.992188 " fill-opacity="1" fill-rule="nonzero"/></g><g clip-path="url(#e72b98bb89)"><path fill="#ffffff" d="M 3.550781 11.988281 L 26.46875 11.988281 L 26.46875 12.992188 L 3.550781 12.992188 Z M 3.550781 11.988281 " fill-opacity="1" fill-rule="nonzero"/></g><g clip-path="url(#595838d47c)"><path fill="#cb001c" d="M 3.550781 10.984375 L 26.46875 10.984375 L 26.46875 11.988281 L 3.550781 11.988281 Z M 3.550781 10.984375 " fill-opacity="1" fill-rule="nonzero"/></g><g clip-path="url(#71881f07cd)"><path fill="#ffffff" d="M 3.550781 9.980469 L 26.46875 9.980469 L 26.46875 10.984375 L 3.550781 10.984375 Z M 3.550781 9.980469 " fill-opacity="1" fill-rule="nonzero"/></g><g clip-path="url(#7ba261c798)"><path fill="#cb001c" d="M 3.550781 8.976562 L 26.46875 8.976562 L 26.46875 9.980469 L 3.550781 9.980469 Z M 3.550781 8.976562 " fill-opacity="1" fill-rule="nonzero"/></g><g clip-path="url(#c5b52cc1ca)"><path fill="#2a3560" d="M 3.550781 8.976562 L 14.015625 8.976562 L 14.015625 16.003906 L 3.550781 16.003906 Z M 3.550781 8.976562 " fill-opacity="1" fill-rule="nonzero"/></g><path fill="#ffffff" d="M 4.496094 9.75 L 4.582031 10.015625 L 4.871094 10.015625 L 4.636719 10.179688 L 4.726562 10.445312 L 4.496094 10.28125 L 4.265625 10.445312 L 4.351562 10.179688 L 4.121094 10.015625 L 4.40625 10.015625 Z M 4.496094 9.75 " fill-opacity="1" fill-rule="nonzero"/><path fill="#ffffff" d="M 4.496094 10.925781 L 4.582031 11.191406 L 4.871094 11.191406 L 4.636719 11.355469 L 4.726562 11.621094 L 4.496094 11.453125 L 4.265625 11.621094 L 4.351562 11.355469 L 4.121094 11.191406 L 4.40625 11.191406 Z M 4.496094 10.925781 " fill-opacity="1" fill-rule="nonzero"/><path fill="#ffffff" d="M 4.496094 12.097656 L 4.582031 12.363281 L 4.871094 12.363281 L 4.636719 12.527344 L 4.726562 12.792969 L 4.496094 12.628906 L 4.265625 12.792969 L 4.351562 12.527344 L 4.121094 12.363281 L 4.40625 12.363281 Z M 4.496094 12.097656 " fill-opacity="1" fill-rule="nonzero"/><path fill="#ffffff" d="M 4.496094 13.269531 L 4.582031 13.535156 L 4.871094 13.535156 L 4.636719 13.699219 L 4.726562 13.964844 L 4.496094 13.800781 L 4.265625 13.964844 L 4.351562 13.699219 L 4.121094 13.535156 L 4.40625 13.535156 Z M 4.496094 13.269531 " fill-opacity="1" fill-rule="nonzero"/><path fill="#ffffff" d="M 4.496094 14.441406 L 4.582031 14.707031 L 4.871094 14.707031 L 4.636719 14.871094 L 4.726562 15.136719 L 4.496094 14.972656 L 4.265625 15.136719 L 4.351562 14.871094 L 4.121094 14.707031 L 4.40625 14.707031 Z M 4.496094 14.441406 " fill-opacity="1" fill-rule="nonzero"/><path fill="#ffffff" d="M 5.332031 10.367188 L 5.421875 10.632812 L 5.707031 10.632812 L 5.476562 10.800781 L 5.5625 11.0625 L 5.332031 10.898438 L 5.101562 11.0625 L 5.191406 10.800781 L 4.957031 10.632812 L 5.246094 10.632812 Z M 5.332031 10.367188 " fill-opacity="1" fill-rule="nonzero"/><path fill="#ffffff" d="M 5.332031 11.542969 L 5.421875 11.808594 L 5.707031 11.808594 L 5.476562 11.972656 L 5.5625 12.238281 L 5.332031 12.074219 L 5.101562 12.238281 L 5.191406 11.972656 L 4.957031 11.808594 L 5.246094 11.808594 Z M 5.332031 11.542969 " fill-opacity="1" fill-rule="nonzero"/><path fill="#ffffff" d="M 5.332031 12.714844 L 5.421875 12.980469 L 5.707031 12.980469 L 5.476562 13.144531 L 5.5625 13.410156 L 5.332031 13.246094 L 5.101562 13.410156 L 5.191406 13.144531 L 4.957031 12.980469 L 5.246094 12.980469 Z M 5.332031 12.714844 " fill-opacity="1" fill-rule="nonzero"/><path fill="#ffffff" d="M 5.332031 13.886719 L 5.421875 14.152344 L 5.707031 14.152344 L 5.476562 14.316406 L 5.5625 14.582031 L 5.332031 14.417969 L 5.101562 14.582031 L 5.191406 14.316406 L 4.957031 14.152344 L 5.246094 14.152344 Z M 5.332031 13.886719 " fill-opacity="1" fill-rule="nonzero"/><path fill="#ffffff" d="M 6.179688 9.75 L 6.269531 10.015625 L 6.554688 10.015625 L 6.324219 10.179688 L 6.410156 10.445312 L 6.179688 10.28125 L 5.949219 10.445312 L 6.035156 10.179688 L 5.804688 10.015625 L 6.089844 10.015625 Z M 6.179688 9.75 " fill-opacity="1" fill-rule="nonzero"/><path fill="#ffffff" d="M 6.179688 10.925781 L 6.269531 11.191406 L 6.554688 11.191406 L 6.324219 11.355469 L 6.410156 11.621094 L 6.179688 11.453125 L 5.949219 11.621094 L 6.035156 11.355469 L 5.804688 11.191406 L 6.089844 11.191406 Z M 6.179688 10.925781 " fill-opacity="1" fill-rule="nonzero"/><path fill="#ffffff" d="M 6.179688 12.097656 L 6.269531 12.363281 L 6.554688 12.363281 L 6.324219 12.527344 L 6.410156 12.792969 L 6.179688 12.628906 L 5.949219 12.792969 L 6.035156 12.527344 L 5.804688 12.363281 L 6.089844 12.363281 Z M 6.179688 12.097656 " fill-opacity="1" fill-rule="nonzero"/><path fill="#ffffff" d="M 6.179688 13.269531 L 6.269531 13.535156 L 6.554688 13.535156 L 6.324219 13.699219 L 6.410156 13.964844 L 6.179688 13.800781 L 5.949219 13.964844 L 6.035156 13.699219 L 5.804688 13.535156 L 6.089844 13.535156 Z M 6.179688 13.269531 " fill-opacity="1" fill-rule="nonzero"/><path fill="#ffffff" d="M 6.179688 14.441406 L 6.269531 14.707031 L 6.554688 14.707031 L 6.324219 14.871094 L 6.410156 15.136719 L 6.179688 14.972656 L 5.949219 15.136719 L 6.035156 14.871094 L 5.804688 14.707031 L 6.089844 14.707031 Z M 6.179688 14.441406 " fill-opacity="1" fill-rule="nonzero"/><path fill="#ffffff" d="M 7.015625 10.367188 L 7.105469 10.632812 L 7.390625 10.632812 L 7.160156 10.800781 L 7.25 11.0625 L 7.015625 10.898438 L 6.785156 11.0625 L 6.875 10.800781 L 6.644531 10.632812 L 6.929688 10.632812 Z M 7.015625 10.367188 " fill-opacity="1" fill-rule="nonzero"/><path fill="#ffffff" d="M 7.015625 11.542969 L 7.105469 11.808594 L 7.390625 11.808594 L 7.160156 11.972656 L 7.25 12.238281 L 7.015625 12.074219 L 6.785156 12.238281 L 6.875 11.972656 L 6.644531 11.808594 L 6.929688 11.808594 Z M 7.015625 11.542969 " fill-opacity="1" fill-rule="nonzero"/><path fill="#ffffff" d="M 7.015625 12.714844 L 7.105469 12.980469 L 7.390625 12.980469 L 7.160156 13.144531 L 7.25 13.410156 L 7.015625 13.246094 L 6.785156 13.410156 L 6.875 13.144531 L 6.644531 12.980469 L 6.929688 12.980469 Z M 7.015625 12.714844 " fill-opacity="1" fill-rule="nonzero"/><path fill="#ffffff" d="M 7.015625 13.886719 L 7.105469 14.152344 L 7.390625 14.152344 L 7.160156 14.316406 L 7.25 14.582031 L 7.015625 14.417969 L 6.785156 14.582031 L 6.875 14.316406 L 6.644531 14.152344 L 6.929688 14.152344 Z M 7.015625 13.886719 " fill-opacity="1" fill-rule="nonzero"/><path fill="#ffffff" d="M 7.863281 9.75 L 7.953125 10.015625 L 8.238281 10.015625 L 8.007812 10.179688 L 8.09375 10.445312 L 7.863281 10.28125 L 7.632812 10.445312 L 7.722656 10.179688 L 7.488281 10.015625 L 7.777344 10.015625 Z M 7.863281 9.75 " fill-opacity="1" fill-rule="nonzero"/><path fill="#ffffff" d="M 7.863281 10.925781 L 7.953125 11.191406 L 8.238281 11.191406 L 8.007812 11.355469 L 8.09375 11.621094 L 7.863281 11.453125 L 7.632812 11.621094 L 7.722656 11.355469 L 7.488281 11.191406 L 7.777344 11.191406 Z M 7.863281 10.925781 " fill-opacity="1" fill-rule="nonzero"/><path fill="#ffffff" d="M 7.863281 12.097656 L 7.953125 12.363281 L 8.238281 12.363281 L 8.007812 12.527344 L 8.09375 12.792969 L 7.863281 12.628906 L 7.632812 12.792969 L 7.722656 12.527344 L 7.488281 12.363281 L 7.777344 12.363281 Z M 7.863281 12.097656 " fill-opacity="1" fill-rule="nonzero"/><path fill="#ffffff" d="M 7.863281 13.269531 L 7.953125 13.535156 L 8.238281 13.535156 L 8.007812 13.699219 L 8.09375 13.964844 L 7.863281 13.800781 L 7.632812 13.964844 L 7.722656 13.699219 L 7.488281 13.535156 L 7.777344 13.535156 Z M 7.863281 13.269531 " fill-opacity="1" fill-rule="nonzero"/><path fill="#ffffff" d="M 7.863281 14.441406 L 7.953125 14.707031 L 8.238281 14.707031 L 8.007812 14.871094 L 8.09375 15.136719 L 7.863281 14.972656 L 7.632812 15.136719 L 7.722656 14.871094 L 7.488281 14.707031 L 7.777344 14.707031 Z M 7.863281 14.441406 " fill-opacity="1" fill-rule="nonzero"/><path fill="#ffffff" d="M 8.699219 10.367188 L 8.789062 10.632812 L 9.074219 10.632812 L 8.84375 10.800781 L 8.933594 11.0625 L 8.699219 10.898438 L 8.46875 11.0625 L 8.558594 10.800781 L 8.328125 10.632812 L 8.613281 10.632812 Z M 8.699219 10.367188 " fill-opacity="1" fill-rule="nonzero"/><path fill="#ffffff" d="M 8.699219 11.542969 L 8.789062 11.808594 L 9.074219 11.808594 L 8.84375 11.972656 L 8.933594 12.238281 L 8.699219 12.074219 L 8.46875 12.238281 L 8.558594 11.972656 L 8.328125 11.808594 L 8.613281 11.808594 Z M 8.699219 11.542969 " fill-opacity="1" fill-rule="nonzero"/><path fill="#ffffff" d="M 8.699219 12.714844 L 8.789062 12.980469 L 9.074219 12.980469 L 8.84375 13.144531 L 8.933594 13.410156 L 8.699219 13.246094 L 8.46875 13.410156 L 8.558594 13.144531 L 8.328125 12.980469 L 8.613281 12.980469 Z M 8.699219 12.714844 " fill-opacity="1" fill-rule="nonzero"/><path fill="#ffffff" d="M 8.699219 13.886719 L 8.789062 14.152344 L 9.074219 14.152344 L 8.84375 14.316406 L 8.933594 14.582031 L 8.699219 14.417969 L 8.46875 14.582031 L 8.558594 14.316406 L 8.328125 14.152344 L 8.613281 14.152344 Z M 8.699219 13.886719 " fill-opacity="1" fill-rule="nonzero"/><path fill="#ffffff" d="M 9.546875 9.75 L 9.636719 10.015625 L 9.921875 10.015625 L 9.691406 10.179688 L 9.78125 10.445312 L 9.546875 10.28125 L 9.316406 10.445312 L 9.40625 10.179688 L 9.175781 10.015625 L 9.460938 10.015625 Z M 9.546875 9.75 " fill-opacity="1" fill-rule="nonzero"/><path fill="#ffffff" d="M 9.546875 10.925781 L 9.636719 11.191406 L 9.921875 11.191406 L 9.691406 11.355469 L 9.78125 11.621094 L 9.546875 11.453125 L 9.316406 11.621094 L 9.40625 11.355469 L 9.175781 11.191406 L 9.460938 11.191406 Z M 9.546875 10.925781 " fill-opacity="1" fill-rule="nonzero"/><path fill="#ffffff" d="M 9.546875 12.097656 L 9.636719 12.363281 L 9.921875 12.363281 L 9.691406 12.527344 L 9.78125 12.792969 L 9.546875 12.628906 L 9.316406 12.792969 L 9.40625 12.527344 L 9.175781 12.363281 L 9.460938 12.363281 Z M 9.546875 12.097656 " fill-opacity="1" fill-rule="nonzero"/><path fill="#ffffff" d="M 9.546875 13.269531 L 9.636719 13.535156 L 9.921875 13.535156 L 9.691406 13.699219 L 9.78125 13.964844 L 9.546875 13.800781 L 9.316406 13.964844 L 9.40625 13.699219 L 9.175781 13.535156 L 9.460938 13.535156 Z M 9.546875 13.269531 " fill-opacity="1" fill-rule="nonzero"/><path fill="#ffffff" d="M 9.546875 14.441406 L 9.636719 14.707031 L 9.921875 14.707031 L 9.691406 14.871094 L 9.78125 15.136719 L 9.546875 14.972656 L 9.316406 15.136719 L 9.40625 14.871094 L 9.175781 14.707031 L 9.460938 14.707031 Z M 9.546875 14.441406 " fill-opacity="1" fill-rule="nonzero"/><path fill="#ffffff" d="M 10.386719 10.367188 L 10.472656 10.632812 L 10.757812 10.632812 L 10.527344 10.800781 L 10.617188 11.0625 L 10.386719 10.898438 L 10.152344 11.0625 L 10.242188 10.800781 L 10.011719 10.632812 L 10.296875 10.632812 Z M 10.386719 10.367188 " fill-opacity="1" fill-rule="nonzero"/><path fill="#ffffff" d="M 10.386719 11.542969 L 10.472656 11.808594 L 10.757812 11.808594 L 10.527344 11.972656 L 10.617188 12.238281 L 10.386719 12.074219 L 10.152344 12.238281 L 10.242188 11.972656 L 10.011719 11.808594 L 10.296875 11.808594 Z M 10.386719 11.542969 " fill-opacity="1" fill-rule="nonzero"/><path fill="#ffffff" d="M 10.386719 12.714844 L 10.472656 12.980469 L 10.757812 12.980469 L 10.527344 13.144531 L 10.617188 13.410156 L 10.386719 13.246094 L 10.152344 13.410156 L 10.242188 13.144531 L 10.011719 12.980469 L 10.296875 12.980469 Z M 10.386719 12.714844 " fill-opacity="1" fill-rule="nonzero"/><path fill="#ffffff" d="M 10.386719 13.886719 L 10.472656 14.152344 L 10.757812 14.152344 L 10.527344 14.316406 L 10.617188 14.582031 L 10.386719 14.417969 L 10.152344 14.582031 L 10.242188 14.316406 L 10.011719 14.152344 L 10.296875 14.152344 Z M 10.386719 13.886719 " fill-opacity="1" fill-rule="nonzero"/><path fill="#ffffff" d="M 11.234375 9.75 L 11.320312 10.015625 L 11.605469 10.015625 L 11.375 10.179688 L 11.464844 10.445312 L 11.234375 10.28125 L 11.003906 10.445312 L 11.089844 10.179688 L 10.859375 10.015625 L 11.144531 10.015625 Z M 11.234375 9.75 " fill-opacity="1" fill-rule="nonzero"/><path fill="#ffffff" d="M 11.234375 10.925781 L 11.320312 11.191406 L 11.605469 11.191406 L 11.375 11.355469 L 11.464844 11.621094 L 11.234375 11.453125 L 11.003906 11.621094 L 11.089844 11.355469 L 10.859375 11.191406 L 11.144531 11.191406 Z M 11.234375 10.925781 " fill-opacity="1" fill-rule="nonzero"/><path fill="#ffffff" d="M 11.234375 12.097656 L 11.320312 12.363281 L 11.605469 12.363281 L 11.375 12.527344 L 11.464844 12.792969 L 11.234375 12.628906 L 11.003906 12.792969 L 11.089844 12.527344 L 10.859375 12.363281 L 11.144531 12.363281 Z M 11.234375 12.097656 " fill-opacity="1" fill-rule="nonzero"/><path fill="#ffffff" d="M 11.234375 13.269531 L 11.320312 13.535156 L 11.605469 13.535156 L 11.375 13.699219 L 11.464844 13.964844 L 11.234375 13.800781 L 11.003906 13.964844 L 11.089844 13.699219 L 10.859375 13.535156 L 11.144531 13.535156 Z M 11.234375 13.269531 " fill-opacity="1" fill-rule="nonzero"/><path fill="#ffffff" d="M 11.234375 14.441406 L 11.320312 14.707031 L 11.605469 14.707031 L 11.375 14.871094 L 11.464844 15.136719 L 11.234375 14.972656 L 11.003906 15.136719 L 11.089844 14.871094 L 10.859375 14.707031 L 11.144531 14.707031 Z M 11.234375 14.441406 " fill-opacity="1" fill-rule="nonzero"/><path fill="#ffffff" d="M 12.070312 10.367188 L 12.15625 10.632812 L 12.445312 10.632812 L 12.214844 10.800781 L 12.300781 11.0625 L 12.070312 10.898438 L 11.839844 11.0625 L 11.925781 10.800781 L 11.695312 10.632812 L 11.980469 10.632812 Z M 12.070312 10.367188 " fill-opacity="1" fill-rule="nonzero"/><path fill="#ffffff" d="M 12.070312 11.542969 L 12.15625 11.808594 L 12.445312 11.808594 L 12.214844 11.972656 L 12.300781 12.238281 L 12.070312 12.074219 L 11.839844 12.238281 L 11.925781 11.972656 L 11.695312 11.808594 L 11.980469 11.808594 Z M 12.070312 11.542969 " fill-opacity="1" fill-rule="nonzero"/><path fill="#ffffff" d="M 12.070312 12.714844 L 12.15625 12.980469 L 12.445312 12.980469 L 12.214844 13.144531 L 12.300781 13.410156 L 12.070312 13.246094 L 11.839844 13.410156 L 11.925781 13.144531 L 11.695312 12.980469 L 11.980469 12.980469 Z M 12.070312 12.714844 " fill-opacity="1" fill-rule="nonzero"/><path fill="#ffffff" d="M 12.070312 13.886719 L 12.15625 14.152344 L 12.445312 14.152344 L 12.214844 14.316406 L 12.300781 14.582031 L 12.070312 14.417969 L 11.839844 14.582031 L 11.925781 14.316406 L 11.695312 14.152344 L 11.980469 14.152344 Z M 12.070312 13.886719 " fill-opacity="1" fill-rule="nonzero"/><path fill="#ffffff" d="M 12.917969 9.75 L 13.007812 10.015625 L 13.292969 10.015625 L 13.058594 10.179688 L 13.148438 10.445312 L 12.917969 10.28125 L 12.683594 10.445312 L 12.773438 10.179688 L 12.542969 10.015625 L 12.828125 10.015625 Z M 12.917969 9.75 " fill-opacity="1" fill-rule="nonzero"/><path fill="#ffffff" d="M 12.917969 10.925781 L 13.007812 11.191406 L 13.292969 11.191406 L 13.058594 11.355469 L 13.148438 11.621094 L 12.917969 11.453125 L 12.683594 11.621094 L 12.773438 11.355469 L 12.542969 11.191406 L 12.828125 11.191406 Z M 12.917969 10.925781 " fill-opacity="1" fill-rule="nonzero"/><path fill="#ffffff" d="M 12.917969 12.097656 L 13.007812 12.363281 L 13.292969 12.363281 L 13.058594 12.527344 L 13.148438 12.792969 L 12.917969 12.628906 L 12.683594 12.792969 L 12.773438 12.527344 L 12.542969 12.363281 L 12.828125 12.363281 Z M 12.917969 12.097656 " fill-opacity="1" fill-rule="nonzero"/><path fill="#ffffff" d="M 12.917969 13.269531 L 13.007812 13.535156 L 13.292969 13.535156 L 13.058594 13.699219 L 13.148438 13.964844 L 12.917969 13.800781 L 12.683594 13.964844 L 12.773438 13.699219 L 12.542969 13.535156 L 12.828125 13.535156 Z M 12.917969 13.269531 " fill-opacity="1" fill-rule="nonzero"/><path fill="#ffffff" d="M 12.917969 14.441406 L 13.007812 14.707031 L 13.292969 14.707031 L 13.058594 14.871094 L 13.148438 15.136719 L 12.917969 14.972656 L 12.683594 15.136719 L 12.773438 14.871094 L 12.542969 14.707031 L 12.828125 14.707031 Z M 12.917969 14.441406 " fill-opacity="1" fill-rule="nonzero"/></svg>