<svg xmlns="http://www.w3.org/2000/svg" xmlns:xlink="http://www.w3.org/1999/xlink" width="40" zoomAndPan="magnify" viewBox="0 0 30 30.000001" height="40" preserveAspectRatio="xMidYMid meet" version="1.0"><defs><clipPath id="89d92103db"><path d="M 2.203125 0 L 26.878906 0 L 26.878906 29.003906 L 2.203125 29.003906 Z M 2.203125 0 " clip-rule="nonzero"/></clipPath></defs><g clip-path="url(#89d92103db)"><path fill="#ffffff" d="M 14.539062 -0.0273438 C 13.25 -0.0273438 12.191406 1.019531 12.191406 2.292969 C 12.191406 3.164062 12.6875 3.914062 13.40625 4.3125 C 13.378906 4.414062 13.367188 4.515625 13.367188 4.617188 C 13.367188 4.636719 13.367188 4.65625 13.367188 4.671875 C 7.109375 5.257812 2.203125 10.472656 2.203125 16.808594 C 2.203125 23.539062 7.734375 29.003906 14.539062 29.003906 C 21.347656 29.003906 26.878906 23.539062 26.878906 16.808594 C 26.878906 10.472656 21.972656 5.257812 15.714844 4.671875 C 15.714844 4.65625 15.714844 4.636719 15.714844 4.617188 C 15.714844 4.515625 15.703125 4.414062 15.675781 4.3125 C 16.394531 3.914062 16.890625 3.164062 16.890625 2.292969 C 16.890625 1.019531 15.832031 -0.0273438 14.539062 -0.0273438 Z M 14.539062 1.132812 C 15.195312 1.132812 15.714844 1.644531 15.714844 2.292969 C 15.714844 2.941406 15.195312 3.457031 14.539062 3.457031 C 13.882812 3.457031 13.367188 2.941406 13.367188 2.292969 C 13.367188 1.644531 13.882812 1.132812 14.539062 1.132812 Z M 14.539062 5.777344 C 20.714844 5.777344 25.703125 10.710938 25.703125 16.808594 C 25.703125 22.910156 20.714844 27.84375 14.539062 27.84375 C 8.367188 27.84375 3.375 22.910156 3.375 16.808594 C 3.375 10.710938 8.367188 5.777344 14.539062 5.777344 Z M 14.539062 8.101562 C 12.609375 8.101562 10.820312 8.714844 9.371094 9.761719 C 9.65625 9.988281 10 10.238281 10.398438 10.46875 C 11.578125 9.71875 12.984375 9.273438 14.488281 9.265625 L 14 14.558594 C 13.804688 14.601562 13.621094 14.675781 13.445312 14.769531 C 13.445312 14.765625 13.449219 14.761719 13.449219 14.753906 C 12.742188 13.972656 12.539062 13.519531 12.265625 12.5 C 9.210938 11.742188 7.703125 9.632812 7.496094 9.835938 C 7.230469 10.097656 9.46875 11.484375 10.1875 14.558594 C 11.214844 14.824219 11.671875 15.027344 12.46875 15.726562 C 12.472656 15.726562 12.472656 15.722656 12.476562 15.722656 C 12.382812 15.898438 12.308594 16.082031 12.261719 16.277344 L 6.90625 16.757812 C 6.914062 15.261719 7.371094 13.859375 8.140625 12.6875 C 7.902344 12.300781 7.648438 11.96875 7.414062 11.695312 C 6.347656 13.132812 5.726562 14.898438 5.726562 16.808594 C 5.726562 21.613281 9.679688 25.519531 14.539062 25.519531 C 16.472656 25.519531 18.261719 24.90625 19.71875 23.855469 C 19.441406 23.621094 19.105469 23.371094 18.710938 23.132812 C 17.527344 23.898438 16.109375 24.34375 14.59375 24.355469 L 15.082031 19.0625 C 15.28125 19.015625 15.464844 18.941406 15.640625 18.847656 C 15.640625 18.851562 15.640625 18.855469 15.640625 18.859375 C 16.34375 19.644531 16.550781 20.097656 16.820312 21.113281 C 19.929688 21.820312 21.332031 24.03125 21.597656 23.773438 C 21.800781 23.570312 19.667969 22.074219 18.898438 19.054688 C 17.871094 18.789062 17.414062 18.585938 16.621094 17.890625 C 16.613281 17.890625 16.609375 17.890625 16.605469 17.894531 C 16.699219 17.71875 16.773438 17.539062 16.820312 17.34375 L 22.175781 16.863281 C 22.164062 18.347656 21.71875 19.738281 20.957031 20.902344 C 21.191406 21.296875 21.445312 21.636719 21.675781 21.921875 C 22.730469 20.484375 23.355469 18.71875 23.355469 16.808594 C 23.355469 12.007812 19.398438 8.101562 14.539062 8.101562 Z M 14.59375 9.265625 C 16.660156 9.277344 18.53125 10.105469 19.898438 11.4375 L 15.769531 14.839844 C 15.558594 14.710938 15.328125 14.613281 15.082031 14.558594 Z M 19.976562 11.515625 C 21.324219 12.867188 22.160156 14.714844 22.175781 16.757812 L 16.820312 16.277344 C 16.761719 16.03125 16.664062 15.804688 16.53125 15.597656 Z M 14.539062 15.648438 C 15.195312 15.648438 15.714844 16.160156 15.714844 16.808594 C 15.714844 17.457031 15.195312 17.972656 14.539062 17.972656 C 13.882812 17.972656 13.367188 17.457031 13.367188 16.808594 C 13.367188 16.160156 13.882812 15.648438 14.539062 15.648438 Z M 6.90625 16.863281 L 12.261719 17.34375 C 12.320312 17.589844 12.417969 17.816406 12.546875 18.023438 L 9.105469 22.105469 C 7.757812 20.753906 6.917969 18.902344 6.90625 16.863281 Z M 13.3125 18.777344 C 13.523438 18.90625 13.753906 19.003906 14 19.0625 L 14.488281 24.355469 C 12.421875 24.339844 10.550781 23.515625 9.179688 22.183594 Z M 13.3125 18.777344 " fill-opacity="1" fill-rule="nonzero"/></g></svg>